<?xml version="1.0" encoding="UTF-8"?>
<!DOCTYPE svg PUBLIC "-//W3C//DTD SVG 1.1//EN" "http://www.w3.org/Graphics/SVG/1.1/DTD/svg11.dtd">
<!-- Creator: CorelDRAW -->
<svg xmlns="http://www.w3.org/2000/svg" xml:space="preserve" width="309.376mm" height="203.793mm" version="1.1" style="shape-rendering:geometricPrecision; text-rendering:geometricPrecision; image-rendering:optimizeQuality; fill-rule:evenodd; clip-rule:evenodd"
viewBox="0 0 30937.58 20379.3"
 xmlns:xlink="http://www.w3.org/1999/xlink"
 xmlns:xodm="http://www.corel.com/coreldraw/odm/2003">
 <defs>
  <style type="text/css">
   <![CDATA[
    .str0 {stroke:#444FB6;stroke-width:21.62;stroke-linecap:round;stroke-miterlimit:10}
    .str1 {stroke:#444FB6;stroke-width:16.63;stroke-linecap:round;stroke-miterlimit:10}
    .fil12 {fill:none;fill-rule:nonzero}
    .fil2 {fill:#3B3B89;fill-rule:nonzero}
    .fil7 {fill:#414199;fill-rule:nonzero}
    .fil1 {fill:#4D56B1;fill-rule:nonzero}
    .fil6 {fill:#5259C1;fill-rule:nonzero}
    .fil16 {fill:#5B60D1;fill-rule:nonzero}
    .fil3 {fill:#6267DF;fill-rule:nonzero}
    .fil15 {fill:#6E74DF;fill-rule:nonzero}
    .fil4 {fill:#777EE9;fill-rule:nonzero}
    .fil11 {fill:#8A8CFB;fill-rule:nonzero}
    .fil5 {fill:#A0A3FB;fill-rule:nonzero}
    .fil9 {fill:#B3B8FB;fill-rule:nonzero}
    .fil10 {fill:#CACFFB;fill-rule:nonzero}
    .fil0 {fill:#F2CF85;fill-rule:nonzero}
    .fil14 {fill:#DDDFFD;fill-rule:nonzero;fill-opacity:0.149020}
    .fil8 {fill:#2A2A6B;fill-rule:nonzero;fill-opacity:0.301961}
    .fil13 {fill:#6267DF;fill-rule:nonzero;fill-opacity:0.501961}
   ]]>
  </style>
 </defs>
 <g id="Layer_x0020_1">
  <metadata id="CorelCorpID_0Corel-Layer"/>
  <g id="_2509835853600">
   <path class="fil0" d="M29021.81 15704.34c0,526.75 427.01,953.76 953.76,953.76 526.75,0 953.77,-427.01 953.77,-953.76 0,-526.75 -427.02,-953.77 -953.77,-953.77 -526.75,0 -953.76,427.02 -953.76,953.77z"/>
   <path class="fil0" d="M28660.73 18436.84c0,355.83 288.45,644.28 644.28,644.28 355.83,0 644.29,-288.45 644.29,-644.28 0,-355.83 -288.46,-644.29 -644.29,-644.29 -355.83,0 -644.28,288.46 -644.28,644.29z"/>
   <path class="fil0" d="M-8.29 2790.2c2263.46,-1778.16 7957.52,-5183 13698.42,-152.06 2010.52,1761.89 2880.33,3675.98 4341.38,4435.97 4693.01,2441.12 7159.65,668.26 9213.03,4214.29 2070.51,3575.63 -117.84,6962.86 -2190.7,9095.11l-25062.13 0 0 -17593.31z"/>
  </g>
  <g id="_2509831404592">
   <polygon class="fil1" points="29305.01,20383.51 29305.01,17960.6 23864.57,17960.6 23864.57,20383.51 "/>
   <path class="fil2" d="M28828.09 16873.79c-146.38,0 -279.97,50.29 -388.57,132.12l-23.36 0c17.52,-74.25 29.12,-150.71 29.12,-230.34 0,-553.51 -448.23,-1002.2 -1001.17,-1002.2 -293.48,0 -554.91,128.66 -738.03,330.06 -169.2,-546.99 -678.44,-944.33 -1280.45,-944.33 -683.61,0 -1246.54,512.7 -1328.81,1174.72 -154.45,-108.08 -341.58,-172.51 -544.33,-172.51 -453.25,0 -830.88,317.54 -927.32,742.03 -98.15,-55.28 -209.77,-89.43 -330.4,-89.43 -374.57,0 -678.21,303.95 -678.21,678.91 0,371.51 298.36,672.39 668.17,677.9l0 1.5 6529.84 0c4.61,0.1 8.9,1.36 13.52,1.36 358.55,0 649.22,-290.97 649.22,-649.9 0,-358.93 -290.67,-649.89 -649.22,-649.89z"/>
   <g>
    <polygon class="fil3" points="2218.47,6590.41 14635.39,6590.41 14635.39,5386.42 2218.47,5386.42 "/>
    <path class="fil4" d="M2120.73 4776.71l12612.4 0c67.74,0 106.6,77.12 66.3,131.56l-164.04 221.59 -12416.92 0 -164.03 -221.59c-40.3,-54.44 -1.44,-131.56 66.29,-131.56z"/>
    <polygon class="fil5" points="14635.39,5129.86 14635.39,5386.42 2218.47,5386.42 2218.47,5129.86 "/>
   </g>
   <polygon class="fil6" points="1043.29,8169.18 15877.83,8169.18 15877.83,6730.77 1043.29,6730.77 "/>
   <path class="fil4" d="M926.52 6308.87l15068.08 0c80.92,0 127.35,92.13 79.2,157.17l-195.97 264.73 -14834.54 0 -195.97 -264.73c-48.15,-65.04 -1.72,-157.17 79.2,-157.17z"/>
   <polygon class="fil7" points="2785.56,19204.5 -8.29,19204.5 -8.29,12001.95 2785.56,12001.95 "/>
   <polygon class="fil8" points="-8.29,11609.92 5227.86,11573.23 5227.86,13011.64 -8.29,13011.64 "/>
   <polygon class="fil7" points="13824.76,19204.5 24822.82,19204.5 24822.82,12001.95 13824.76,12001.95 "/>
   <path class="fil8" d="M22712 13352.45c87.32,62.63 144.42,164.76 144.42,280.43 0,134.84 -77.47,251.31 -190.2,308.11 -0.86,0.43 -1.71,0.82 -2.57,1.24 -14.7,7.27 -29.89,13.68 -45.69,18.82 -0.39,0.13 -0.76,0.29 -1.13,0.41 -15.09,4.84 -30.68,8.44 -46.57,11.18 -3.39,0.59 -6.8,1.07 -10.22,1.56 -15.95,2.27 -32.14,3.84 -48.74,3.84l-0.03 0c-29.55,0 -57.74,-4.89 -85.09,-11.88l0 3837.8 0 2494.76 0 84.79 -922.16 0 0 -6416.4c-6.65,1.69 -13.33,3.14 -20.1,4.44 -3.11,0.59 -6.19,1.11 -9.33,1.62 -17.23,2.8 -34.87,4.48 -52.86,4.62 -0.95,0.01 -1.86,0.25 -2.81,0.25 -4.36,0 -8.6,-0.49 -12.93,-0.65 -6.04,-0.22 -12.08,-0.38 -18.21,-0.92 -5.15,-0.46 -10.21,-1.22 -15.28,-1.91 -5.31,-0.69 -10.55,-1.05 -15.89,-1.98 -1.46,-0.26 -2.84,-0.82 -4.33,-1.1 -12.9,-2.53 -25.56,-5.73 -37.91,-9.65 -6.86,-2.16 -13.48,-4.81 -20.19,-7.39 -6.22,-2.42 -12.36,-5 -18.43,-7.77 -7.1,-3.25 -14.21,-6.44 -21.04,-10.14 -5.98,-3.24 -11.65,-6.96 -17.39,-10.53 -11.13,-6.89 -21.8,-14.29 -32.05,-22.37 -3.66,-2.88 -7.26,-5.82 -10.77,-8.84 -22.65,-19.36 -42.6,-41.49 -59.59,-65.99 -1.28,-1.88 -2.59,-3.76 -3.84,-5.67 -16.32,-24.57 -29.4,-51.13 -38.8,-79.47 -1.98,-5.85 -3.78,-11.75 -5.46,-17.73 -1.22,-4.51 -3.05,-8.77 -4.08,-13.36 -0.52,-2.28 -0.61,-4.49 -1.07,-6.77 -2.75,-12.7 -4.88,-25.62 -6.16,-38.8 -0.22,-2.22 -0.16,-4.38 -0.34,-6.59 -0.73,-9.11 -1.37,-18.23 -1.37,-27.53 0,-2.51 0.3,-4.95 0.36,-7.45 0.1,-4.44 0.4,-8.8 0.67,-13.2 0.56,-9.59 1.5,-19.05 2.84,-28.41 0.58,-4.21 1.16,-8.41 1.92,-12.57 1.96,-10.89 4.46,-21.57 7.42,-32.07 0.57,-2.09 1,-4.26 1.61,-6.34 3.91,-12.89 8.57,-25.44 13.91,-37.64 0.76,-1.81 1.71,-3.52 2.53,-5.31 4.7,-10.28 9.89,-20.27 15.53,-29.99 1.52,-2.63 3.11,-5.19 4.72,-7.78 5.65,-9.17 11.72,-18.04 18.18,-26.62 1.47,-1.93 2.84,-3.9 4.37,-5.8 20.16,-25.61 43.84,-48.23 70.38,-67.25l-2687.46 0c87.36,62.63 144.45,164.76 144.45,280.43 0,134.84 -77.5,251.32 -190.2,308.12 -0.85,0.43 -1.71,0.8 -2.56,1.22 -14.7,7.27 -29.89,13.69 -45.72,18.83 -0.37,0.13 -0.73,0.29 -1.13,0.41 -15.07,4.84 -30.65,8.44 -46.57,11.18 -3.39,0.59 -6.77,1.07 -10.19,1.56 -15.98,2.27 -32.18,3.84 -48.77,3.84 -29.56,0 -57.74,-4.89 -85.1,-11.88l0 3837.8 0 2494.76 0 84.79 -922.18 0 0 -6416.4c-6.62,1.69 -13.33,3.14 -20.07,4.44 -3.11,0.59 -6.23,1.11 -9.37,1.62 -17.23,2.8 -34.83,4.48 -52.82,4.62 -0.98,0.01 -1.86,0.25 -2.84,0.25 -4.36,0 -8.57,-0.49 -12.9,-0.65 -6.07,-0.22 -12.11,-0.38 -18.24,-0.92 -5.13,-0.46 -10.19,-1.22 -15.28,-1.91 -5.31,-0.69 -10.55,-1.05 -15.89,-1.98 -1.47,-0.26 -2.84,-0.82 -4.3,-1.1 -12.91,-2.53 -25.56,-5.73 -37.91,-9.65 -6.9,-2.16 -13.49,-4.81 -20.2,-7.39 -6.25,-2.42 -12.38,-5 -18.42,-7.77 -7.14,-3.25 -14.21,-6.44 -21.07,-10.14 -5.77,-3.13 -11.2,-6.72 -16.78,-10.16 -11.35,-6.99 -22.2,-14.52 -32.67,-22.75 -3.63,-2.88 -7.23,-5.81 -10.76,-8.83 -22.67,-19.37 -42.61,-41.51 -59.63,-66.05 -1.28,-1.85 -2.53,-3.69 -3.79,-5.56 -16.31,-24.6 -29.4,-51.21 -38.82,-79.59 -1.98,-5.79 -3.75,-11.65 -5.4,-17.58 -1.25,-4.54 -3.11,-8.83 -4.15,-13.44 -0.48,-2.29 -0.61,-4.52 -1.07,-6.81 -2.71,-12.67 -4.84,-25.57 -6.12,-38.73 -0.25,-2.28 -0.19,-4.51 -0.37,-6.8 -0.7,-9.05 -1.37,-18.11 -1.37,-27.35 0,-2.49 0.33,-4.91 0.36,-7.4 0.09,-4.48 0.43,-8.89 0.67,-13.33 0.58,-9.54 1.5,-18.95 2.84,-28.25 0.61,-4.26 1.19,-8.5 1.95,-12.7 1.95,-10.82 4.42,-21.43 7.35,-31.87 0.61,-2.15 1.04,-4.39 1.68,-6.53 3.9,-12.88 8.57,-25.41 13.88,-37.6 0.79,-1.81 1.74,-3.52 2.56,-5.32 4.7,-10.27 9.85,-20.24 15.49,-29.94 1.53,-2.66 3.14,-5.25 4.76,-7.86 5.67,-9.16 11.71,-18 18.18,-26.57 1.43,-1.93 2.84,-3.91 4.33,-5.81 20.16,-25.61 43.86,-48.23 70.39,-67.25l-5542.29 0 0 -1438.41 13401.38 194.83 -149.51 1240.31 -2034.58 3.27z"/>
   <polygon class="fil6" points="6623.38,12019.99 -8.29,12019.99 -8.29,10581.58 6623.38,10581.58 "/>
   <path class="fil4" d="M6740.15 10159.67l-6748.44 0 0 421.91 6631.67 0 195.97 -264.73c48.15,-65.04 1.72,-157.18 -79.2,-157.18z"/>
   <g>
    <path class="fil6" d="M-8.29 10159.97l23620.97 0 0 -761.93c0,-244.13 -197.91,-442.04 -442.05,-442.04l-23178.92 0 0 1203.97z"/>
   </g>
   <polygon class="fil6" points="9986.96,12019.99 24821.49,12019.99 24821.49,10581.58 9986.96,10581.58 "/>
   <path class="fil4" d="M9870.19 10159.67l15068.07 0c80.92,0 127.35,92.14 79.2,157.18l-195.97 264.73 -14834.53 0 -195.97 -264.73c-48.15,-65.04 -1.72,-157.18 79.2,-157.18z"/>
   <g>
    <polygon class="fil4" points="-8.29,10158.12 17151.72,10158.12 17151.72,8452.77 -8.29,8452.77 "/>
    <path class="fil4" d="M-8.29 7589.16l17296.84 0c94.82,0 149.22,109.23 92.8,186.34l-229.63 313.86 -17160.01 0 0 -500.2z"/>
    <polygon class="fil5" points="17151.72,8089.36 17151.72,8452.77 -8.29,8452.77 -8.29,8089.36 "/>
   </g>
   <polygon class="fil7" points="2991.66,19204.5 13989.72,19204.5 13989.72,8799.05 2991.66,8799.05 "/>
   <polygon class="fil3" points="2846.68,8879.81 14074.43,8879.81 14074.43,7232.44 2846.68,7232.44 "/>
   <polygon class="fil6" points="2846.68,8461.65 14074.43,8461.65 14074.43,7981.02 2846.68,7981.02 "/>
   <polygon class="fil9" points="2672.06,7232.44 14242.77,7232.44 14242.77,6915.78 2672.06,6915.78 "/>
   <polygon class="fil3" points="14399.43,6915.78 8460.56,5129.41 2521.69,6915.78 "/>
   <polygon class="fil5" points="14682.87,6168.21 14399.43,6915.78 8460.56,5129.41 2521.69,6915.78 2170.99,6216.21 8460.56,4292.41 "/>
   <polygon class="fil10" points="8460.56,4292.41 14682.88,6168.21 14534.68,6559.07 8460.56,4719.35 2342.87,6559.07 2171,6216.21 "/>
   <g>
    <polygon class="fil11" points="13026.99,18436.84 14225.75,18436.84 14225.75,9176.09 13026.99,9176.09 "/>
    <polygon class="fil3" points="13231.38,18433.32 13301.24,18433.32 13301.24,9342.16 13231.38,9342.16 "/>
    <polygon class="fil3" points="13549.02,18433.32 13618.88,18433.32 13618.88,9342.16 13549.02,9342.16 "/>
    <polygon class="fil3" points="13878.22,18433.32 13948.08,18433.32 13948.08,9342.16 13878.22,9342.16 "/>
    <line class="fil12 str0" x1="13948.19" y1="18431.2" x2="13948.19" y2= "9049.2" />
    <line class="fil12 str0" x1="13618.88" y1="18431.2" x2="13618.88" y2= "9049.2" />
    <line class="fil12 str0" x1="13304.55" y1="18431.2" x2="13304.55" y2= "9049.2" />
    <path class="fil13" d="M14225.75 17993.58l0 443.26 -1198.75 0 0 -9260.75 429 0c-55.69,961.13 -389.14,7503.79 769.75,8817.49z"/>
    <path class="fil14" d="M14225.75 14750.57c-573.3,-1344.84 -560.72,-4206.96 -517.32,-5574.48l517.32 0 0 5574.48z"/>
    <g>
     <path class="fil11" d="M12961.37 18707.11l1330 0c22.65,0 41.01,-18.36 41.01,-41.01l0 -214.26c0,-22.65 -18.36,-41.01 -41.01,-41.01l-1330 0c-22.65,0 -41.01,18.36 -41.01,41.01l0 214.26c0,22.65 18.36,41.01 41.01,41.01z"/>
     <path class="fil13" d="M12959.91 18707.11l1332.79 0c21.92,0 39.68,-17.76 39.68,-39.68l0 -81.51 -1412.02 0 0 81.64c0,21.84 17.71,39.55 39.55,39.55z"/>
    </g>
    <g>
     <path class="fil11" d="M12841.23 19003.4l1570.28 0c24.55,0 44.45,-19.91 44.45,-44.46l0 -207.37c0,-24.55 -19.9,-44.46 -44.45,-44.46l-1570.28 0c-24.55,0 -44.45,19.91 -44.45,44.46l0 207.37c0,24.55 19.9,44.46 44.45,44.46z"/>
     <path class="fil13" d="M12839.65 19003.4l1573.3 0c23.75,0 43.01,-19.26 43.01,-43.02l0 -78.17 -1659.18 0 0 78.31c0,23.68 19.19,42.88 42.87,42.88z"/>
    </g>
    <path class="fil11" d="M12916.38 8879.81l1419.98 0c247.83,0 448.67,200.89 448.67,448.67 0,247.8 -200.84,448.68 -448.67,448.68 -214.9,0 -394.08,-151.32 -437.95,-353.1l-544.04 0c-43.87,201.78 -223.05,353.1 -437.99,353.1 -247.79,0 -448.67,-200.88 -448.67,-448.68 0,-247.78 200.88,-448.67 448.67,-448.67z"/>
    <path class="fil12 str0" d="M13354.86 9424.06c10.83,-141.69 -96.91,-358.19 -353.88,-366.07 -315.16,-9.66 -373.95,341.68 -227.12,463.23 146.83,121.55 356.2,6.23 320.03,-155.62 -32.74,-146.45 -229.1,-104.53 -188.45,1.16"/>
    <path class="fil12 str0" d="M14346.32 9366.76c40.65,-105.69 -155.72,-147.61 -188.45,-1.16 -36.18,161.85 173.19,277.17 320.02,155.62 146.84,-121.55 88.04,-472.89 -227.12,-463.23 -256.96,7.88 -364.7,224.38 -353.87,366.07"/>
    <path class="fil13" d="M12597.75 9012.89c-97.68,248.65 8.46,639.79 341.44,605.47 230.1,-23.71 328.84,-192.32 361.78,-267.51 9.72,-22.2 32.06,-36.03 56.3,-36.03l484.74 0c39.57,0 74.47,25.33 86.24,63.11 39.92,128.1 273.87,399.23 603.89,262.11 68.43,-28.43 136.71,-75.01 223.05,-154.38 -63.84,169.96 -226.51,291.5 -418.82,291.5 -214.9,0 -394.08,-151.32 -437.95,-353.1l-544.05 0c-49.27,226.67 -269.31,389.67 -518.98,346 -173.72,-30.38 -317.48,-165.91 -356.05,-337.99 -36.61,-163.3 16.08,-315.87 118.41,-419.18z"/>
   </g>
   <g>
    <polygon class="fil11" points="7827.56,18436.84 9026.32,18436.84 9026.32,9176.09 7827.56,9176.09 "/>
    <polygon class="fil3" points="8031.95,18433.32 8101.81,18433.32 8101.81,9342.16 8031.95,9342.16 "/>
    <polygon class="fil3" points="8349.59,18433.32 8419.45,18433.32 8419.45,9342.16 8349.59,9342.16 "/>
    <polygon class="fil3" points="8678.79,18433.32 8748.65,18433.32 8748.65,9342.16 8678.79,9342.16 "/>
    <line class="fil12 str0" x1="8748.76" y1="18431.2" x2="8748.76" y2= "9049.2" />
    <line class="fil12 str0" x1="8419.45" y1="18431.2" x2="8419.45" y2= "9049.2" />
    <line class="fil12 str0" x1="8105.12" y1="18431.2" x2="8105.12" y2= "9049.2" />
    <path class="fil13" d="M9026.32 17993.58l0 443.26 -1198.75 0 0 -9260.75 429 0c-55.69,961.13 -389.15,7503.79 769.75,8817.49z"/>
    <path class="fil14" d="M9026.32 14750.57c-573.31,-1344.84 -560.72,-4206.96 -517.32,-5574.48l517.32 0 0 5574.48z"/>
    <g>
     <path class="fil11" d="M7761.94 18707.11l1330 0c22.65,0 41.01,-18.36 41.01,-41.01l0 -214.26c0,-22.65 -18.36,-41.01 -41.01,-41.01l-1330 0c-22.65,0 -41.02,18.36 -41.02,41.01l0 214.26c0,22.65 18.37,41.01 41.02,41.01z"/>
     <path class="fil13" d="M7760.48 18707.11l1332.79 0c21.91,0 39.68,-17.76 39.68,-39.68l0 -81.51 -1412.03 0 0 81.64c0,21.84 17.72,39.55 39.56,39.55z"/>
    </g>
    <g>
     <path class="fil11" d="M7641.8 19003.4l1570.27 0c24.56,0 44.46,-19.91 44.46,-44.46l0 -207.37c0,-24.55 -19.9,-44.46 -44.46,-44.46l-1570.27 0c-24.55,0 -44.46,19.91 -44.46,44.46l0 207.37c0,24.55 19.91,44.46 44.46,44.46z"/>
     <path class="fil13" d="M7640.22 19003.4l1573.29 0c23.76,0 43.02,-19.26 43.02,-43.02l0 -78.17 -1659.19 0 0 78.31c0,23.68 19.2,42.88 42.88,42.88z"/>
    </g>
    <path class="fil11" d="M7716.95 8879.81l1419.98 0c247.83,0 448.67,200.89 448.67,448.67 0,247.8 -200.84,448.68 -448.67,448.68 -214.9,0 -394.08,-151.32 -437.95,-353.1l-544.04 0c-43.87,201.78 -223.05,353.1 -437.99,353.1 -247.79,0 -448.68,-200.88 -448.68,-448.68 0,-247.78 200.89,-448.67 448.68,-448.67z"/>
    <path class="fil12 str0" d="M8155.43 9424.06c10.83,-141.69 -96.91,-358.19 -353.88,-366.07 -315.16,-9.66 -373.95,341.68 -227.12,463.23 146.83,121.55 356.2,6.23 320.03,-155.62 -32.74,-146.45 -229.11,-104.53 -188.45,1.16"/>
    <path class="fil12 str0" d="M9146.88 9366.76c40.66,-105.69 -155.71,-147.61 -188.44,-1.16 -36.18,161.85 173.19,277.17 320.02,155.62 146.84,-121.55 88.04,-472.89 -227.12,-463.23 -256.97,7.88 -364.7,224.38 -353.88,366.07"/>
    <path class="fil13" d="M7398.32 9012.89c-97.68,248.65 8.46,639.79 341.44,605.47 230.1,-23.71 328.84,-192.32 361.78,-267.51 9.72,-22.2 32.06,-36.03 56.3,-36.03l484.74 0c39.56,0 74.47,25.33 86.24,63.11 39.91,128.1 273.87,399.23 603.88,262.11 68.44,-28.43 136.72,-75.01 223.06,-154.38 -63.84,169.96 -226.51,291.5 -418.82,291.5 -214.9,0 -394.08,-151.32 -437.95,-353.1l-544.05 0c-49.27,226.67 -269.32,389.67 -518.98,346 -173.72,-30.38 -317.48,-165.91 -356.06,-337.99 -36.61,-163.3 16.09,-315.87 118.42,-419.18z"/>
   </g>
   <g>
    <polygon class="fil11" points="2392.28,18436.84 3591.04,18436.84 3591.04,9176.09 2392.28,9176.09 "/>
    <polygon class="fil3" points="2596.67,18433.32 2666.53,18433.32 2666.53,9342.16 2596.67,9342.16 "/>
    <polygon class="fil3" points="2914.31,18433.32 2984.17,18433.32 2984.17,9342.16 2914.31,9342.16 "/>
    <polygon class="fil3" points="3243.52,18433.32 3313.38,18433.32 3313.38,9342.16 3243.52,9342.16 "/>
    <line class="fil12 str0" x1="3313.48" y1="18431.2" x2="3313.48" y2= "9049.2" />
    <line class="fil12 str0" x1="2984.17" y1="18431.2" x2="2984.17" y2= "9049.2" />
    <line class="fil12 str0" x1="2669.84" y1="18431.2" x2="2669.84" y2= "9049.2" />
    <path class="fil13" d="M3591.04 17993.58l0 443.26 -1198.75 0 0 -9260.75 429 0c-55.69,961.13 -389.14,7503.79 769.75,8817.49z"/>
    <path class="fil14" d="M3591.04 14750.57c-573.3,-1344.84 -560.72,-4206.96 -517.32,-5574.48l517.32 0 0 5574.48z"/>
    <g>
     <path class="fil11" d="M2326.66 18707.11l1330 0c22.65,0 41.02,-18.36 41.02,-41.01l0 -214.26c0,-22.65 -18.37,-41.01 -41.02,-41.01l-1330 0c-22.65,0 -41.01,18.36 -41.01,41.01l0 214.26c0,22.65 18.36,41.01 41.01,41.01z"/>
     <path class="fil13" d="M2325.2 18707.11l1332.79 0c21.92,0 39.69,-17.76 39.69,-39.68l0 -81.51 -1412.03 0 0 81.64c0,21.84 17.71,39.55 39.55,39.55z"/>
    </g>
    <g>
     <path class="fil11" d="M2206.53 19003.4l1570.27 0c24.55,0 44.46,-19.91 44.46,-44.46l0 -207.37c0,-24.55 -19.91,-44.46 -44.46,-44.46l-1570.27 0c-24.56,0 -44.46,19.91 -44.46,44.46l0 207.37c0,24.55 19.9,44.46 44.46,44.46z"/>
     <path class="fil13" d="M2204.95 19003.4l1573.29 0c23.76,0 43.02,-19.26 43.02,-43.02l0 -78.17 -1659.19 0 0 78.31c0,23.68 19.2,42.88 42.88,42.88z"/>
    </g>
    <path class="fil11" d="M2281.67 8879.81l1419.98 0c247.83,0 448.67,200.89 448.67,448.67 0,247.8 -200.84,448.68 -448.67,448.68 -214.9,0 -394.08,-151.32 -437.94,-353.1l-544.05 0c-43.87,201.78 -223.05,353.1 -437.99,353.1 -247.79,0 -448.67,-200.88 -448.67,-448.68 0,-247.78 200.88,-448.67 448.67,-448.67z"/>
    <path class="fil12 str0" d="M2720.15 9424.06c10.83,-141.69 -96.91,-358.19 -353.88,-366.07 -315.15,-9.66 -373.95,341.68 -227.12,463.23 146.83,121.55 356.21,6.23 320.03,-155.62 -32.74,-146.45 -229.1,-104.53 -188.44,1.16"/>
    <path class="fil12 str0" d="M3711.61 9366.76c40.65,-105.69 -155.71,-147.61 -188.45,-1.16 -36.18,161.85 173.2,277.17 320.03,155.62 146.83,-121.55 88.03,-472.89 -227.12,-463.23 -256.97,7.88 -364.71,224.38 -353.88,366.07"/>
    <path class="fil13" d="M1963.04 9012.89c-97.67,248.65 8.46,639.79 341.45,605.47 230.09,-23.71 328.84,-192.32 361.77,-267.51 9.72,-22.2 32.07,-36.03 56.3,-36.03l484.74 0c39.57,0 74.47,25.33 86.24,63.11 39.92,128.1 273.88,399.23 603.89,262.11 68.43,-28.43 136.72,-75.01 223.05,-154.38 -63.84,169.96 -226.51,291.5 -418.82,291.5 -214.9,0 -394.08,-151.32 -437.95,-353.1l-544.04 0c-49.28,226.67 -269.32,389.67 -518.99,346 -173.72,-30.38 -317.47,-165.91 -356.05,-337.99 -36.61,-163.3 16.08,-315.87 118.41,-419.18z"/>
   </g>
   <g>
    <path class="fil15" d="M693.09 19405.61l15245.52 0c53.21,0 96.35,-43.14 96.35,-96.35l0 -209.52c0,-53.21 -43.14,-96.34 -96.35,-96.34l-15245.52 0c-53.21,0 -96.34,43.13 -96.34,96.34l0 209.52c0,53.21 43.13,96.35 96.34,96.35z"/>
    <path class="fil16" d="M695.52 19405.61l15237.11 0c56.51,0 102.33,-45.82 102.33,-102.33l0 -98.78 -15438.21 0 0 102.33c0,54.56 44.22,98.78 98.77,98.78z"/>
    <path class="fil15" d="M31.17 19807.81l16601.33 0c55.51,0 100.51,-45 100.51,-100.51l0 -201.18c0,-55.51 -45,-100.51 -100.51,-100.51l-16601.33 0c-14.01,0 -27.35,2.88 -39.46,8.05l0 386.1c12.11,5.17 25.45,8.05 39.46,8.05z"/>
    <path class="fil16" d="M33.7 19807.81l16592.55 0c58.96,0 106.76,-47.79 106.76,-106.75l0 -94.35 -16741.3 0 0 192.18c12.83,5.72 27.04,8.92 41.99,8.92z"/>
    <path class="fil15" d="M-8.29 20210.02l17469.03 0c57.98,0 104.98,-47 104.98,-104.98l0 -192.25c0,-57.97 -47,-104.98 -104.98,-104.98l-17469.03 0 0 402.21z"/>
    <path class="fil16" d="M-8.29 20210.02l17462.51 0c61.58,0 111.5,-49.92 111.5,-111.5l0 -89.6 -17574.01 0 0 201.1z"/>
    <path class="fil15" d="M18394.55 20383.51l0 -63.97c0,-60.48 -49.04,-109.52 -109.52,-109.52l-18293.32 0 0 173.49 18402.84 0z"/>
   </g>
   <g>
    <polygon class="fil11" points="23974.29,19330.54 24896.47,19330.54 24896.47,12206.48 23974.29,12206.48 "/>
    <polygon class="fil3" points="24131.52,19327.83 24185.26,19327.83 24185.26,12334.24 24131.52,12334.24 "/>
    <polygon class="fil3" points="24375.87,19327.83 24429.62,19327.83 24429.62,12334.24 24375.87,12334.24 "/>
    <polygon class="fil3" points="24629.12,19327.83 24682.86,19327.83 24682.86,12334.24 24629.12,12334.24 "/>
    <line class="fil12 str1" x1="24682.94" y1="19326.2" x2="24682.94" y2= "12108.87" />
    <line class="fil12 str1" x1="24429.62" y1="19326.2" x2="24429.62" y2= "12108.87" />
    <line class="fil12 str1" x1="24187.81" y1="19326.2" x2="24187.81" y2= "12108.87" />
    <path class="fil13" d="M24896.46 18989.55l0 340.99 -922.16 0 0 -7124.06 330.01 0c-42.84,739.38 -299.35,5772.48 592.15,6783.07z"/>
    <path class="fil14" d="M24896.46 16494.79c-441.03,-1034.55 -431.34,-3236.3 -397.96,-4288.31l397.96 0 0 4288.31z"/>
    <g>
     <path class="fil11" d="M23923.81 19538.45l1023.13 0c17.43,0 31.55,-14.12 31.55,-31.54l0 -164.83c0,-17.42 -14.12,-31.55 -31.55,-31.55l-1023.13 0c-17.43,0 -31.55,14.13 -31.55,31.55l0 164.83c0,17.42 14.12,31.54 31.55,31.54z"/>
     <path class="fil13" d="M23922.69 19538.45l1025.28 0c16.86,0 30.52,-13.66 30.52,-30.52l0 -62.7 -1086.23 0 0 62.8c0,16.8 13.62,30.42 30.43,30.42z"/>
    </g>
    <g>
     <path class="fil11" d="M23831.39 19766.38l1207.97 0c18.89,0 34.2,-15.31 34.2,-34.2l0 -159.52c0,-18.89 -15.31,-34.21 -34.2,-34.21l-1207.97 0c-18.89,0 -34.2,15.32 -34.2,34.21l0 159.52c0,18.89 15.31,34.2 34.2,34.2z"/>
     <path class="fil13" d="M23830.18 19766.38l1210.29 0c18.27,0 33.09,-14.81 33.09,-33.09l0 -60.13 -1276.37 0 0 60.24c0,18.21 14.77,32.98 32.99,32.98z"/>
    </g>
    <path class="fil11" d="M23889.2 11978.56l1092.35 0c190.66,0 345.16,154.54 345.16,345.16 0,190.62 -154.5,345.16 -345.16,345.16 -165.31,0 -303.15,-116.41 -336.9,-271.64l-418.52 0c-33.74,155.23 -171.58,271.64 -336.93,271.64 -190.62,0 -345.15,-154.54 -345.15,-345.16 0,-190.62 154.53,-345.16 345.15,-345.16z"/>
    <path class="fil12 str1" d="M24226.51 12397.24c8.33,-109 -74.55,-275.55 -272.23,-281.61 -242.44,-7.43 -287.67,262.85 -174.72,356.36 112.95,93.5 274.02,4.79 246.19,-119.72 -25.18,-112.67 -176.24,-80.41 -144.97,0.9"/>
    <path class="fil12 str1" d="M24989.21 12353.17c31.28,-81.31 -119.78,-113.57 -144.97,-0.9 -27.83,124.51 133.24,213.22 246.19,119.72 112.96,-93.51 67.73,-363.79 -174.72,-356.36 -197.67,6.06 -280.56,172.61 -272.22,281.61"/>
    <path class="fil13" d="M23644.08 12080.93c-75.14,191.29 6.51,492.18 262.67,465.78 177.01,-18.24 252.97,-147.94 278.3,-205.78 7.48,-17.08 24.67,-27.72 43.32,-27.72l372.89 0c30.44,0 57.29,19.49 66.35,48.55 30.7,98.54 210.68,307.12 464.55,201.64 52.64,-21.88 105.17,-57.71 171.59,-118.77 -49.11,130.75 -174.25,224.25 -322.19,224.25 -165.32,0 -303.16,-116.41 -336.9,-271.64l-418.52 0c-37.91,174.38 -207.18,299.77 -399.25,266.18 -133.64,-23.38 -244.22,-127.64 -273.9,-260.02 -28.16,-125.62 12.38,-242.99 91.09,-322.47z"/>
   </g>
   <g>
    <polygon class="fil11" points="19974.5,19330.54 20896.68,19330.54 20896.68,12206.48 19974.5,12206.48 "/>
    <polygon class="fil3" points="20131.73,19327.83 20185.48,19327.83 20185.48,12334.24 20131.73,12334.24 "/>
    <polygon class="fil3" points="20376.08,19327.83 20429.83,19327.83 20429.83,12334.24 20376.08,12334.24 "/>
    <polygon class="fil3" points="20629.33,19327.83 20683.08,19327.83 20683.08,12334.24 20629.33,12334.24 "/>
    <line class="fil12 str1" x1="20683.16" y1="19326.2" x2="20683.16" y2= "12108.87" />
    <line class="fil12 str1" x1="20429.83" y1="19326.2" x2="20429.83" y2= "12108.87" />
    <line class="fil12 str1" x1="20188.02" y1="19326.2" x2="20188.02" y2= "12108.87" />
    <path class="fil13" d="M20896.68 18989.55l0 340.99 -922.17 0 0 -7124.06 330.02 0c-42.84,739.38 -299.36,5772.48 592.15,6783.07z"/>
    <path class="fil14" d="M20896.68 16494.79c-441.03,-1034.55 -431.35,-3236.3 -397.96,-4288.31l397.96 0 0 4288.31z"/>
    <g>
     <path class="fil11" d="M19924.02 19538.45l1023.14 0c17.42,0 31.55,-14.12 31.55,-31.54l0 -164.83c0,-17.42 -14.13,-31.55 -31.55,-31.55l-1023.14 0c-17.42,0 -31.55,14.13 -31.55,31.55l0 164.83c0,17.42 14.13,31.54 31.55,31.54z"/>
     <path class="fil13" d="M19922.9 19538.45l1025.28 0c16.86,0 30.53,-13.66 30.53,-30.52l0 -62.7 -1086.24 0 0 62.8c0,16.8 13.63,30.42 30.43,30.42z"/>
    </g>
    <g>
     <path class="fil11" d="M19831.61 19766.38l1207.97 0c18.88,0 34.19,-15.31 34.19,-34.2l0 -159.52c0,-18.89 -15.31,-34.21 -34.19,-34.21l-1207.97 0c-18.89,0 -34.2,15.32 -34.2,34.21l0 159.52c0,18.89 15.31,34.2 34.2,34.2z"/>
     <path class="fil13" d="M19830.39 19766.38l1210.29 0c18.28,0 33.09,-14.81 33.09,-33.09l0 -60.13 -1276.36 0 0 60.24c0,18.21 14.76,32.98 32.98,32.98z"/>
    </g>
    <path class="fil11" d="M19889.41 11978.56l1092.36 0c190.65,0 345.14,154.54 345.14,345.16 0,190.62 -154.49,345.16 -345.14,345.16 -165.32,0 -303.16,-116.41 -336.9,-271.64l-418.53 0c-33.74,155.23 -171.58,271.64 -336.93,271.64 -190.62,0 -345.15,-154.54 -345.15,-345.16 0,-190.62 154.53,-345.16 345.15,-345.16z"/>
    <path class="fil12 str1" d="M20226.72 12397.24c8.33,-109 -74.54,-275.55 -272.23,-281.61 -242.44,-7.43 -287.67,262.85 -174.71,356.36 112.95,93.5 274.01,4.79 246.19,-119.72 -25.19,-112.67 -176.25,-80.41 -144.97,0.9"/>
    <path class="fil12 str1" d="M20989.42 12353.17c31.28,-81.31 -119.78,-113.57 -144.96,-0.9 -27.83,124.51 133.23,213.22 246.19,119.72 112.94,-93.51 67.72,-363.79 -174.72,-356.36 -197.68,6.06 -280.56,172.61 -272.23,281.61"/>
    <path class="fil13" d="M19644.3 12080.93c-75.14,191.29 6.51,492.18 262.66,465.78 177.01,-18.24 252.97,-147.94 278.31,-205.78 7.48,-17.08 24.66,-27.72 43.31,-27.72l372.89 0c30.44,0 57.3,19.49 66.35,48.55 30.7,98.54 210.68,307.12 464.55,201.64 52.64,-21.88 105.17,-57.71 171.58,-118.77 -49.11,130.75 -174.24,224.25 -322.18,224.25 -165.31,0 -303.15,-116.41 -336.9,-271.64l-418.52 0c-37.91,174.38 -207.18,299.77 -399.24,266.18 -133.64,-23.38 -244.22,-127.64 -273.9,-260.02 -28.17,-125.62 12.37,-242.99 91.09,-322.47z"/>
   </g>
   <g>
    <polygon class="fil11" points="15793.28,19330.54 16715.46,19330.54 16715.46,12206.48 15793.28,12206.48 "/>
    <polygon class="fil3" points="15950.52,19327.83 16004.26,19327.83 16004.26,12334.24 15950.52,12334.24 "/>
    <polygon class="fil3" points="16194.87,19327.83 16248.61,19327.83 16248.61,12334.24 16194.87,12334.24 "/>
    <polygon class="fil3" points="16448.12,19327.83 16501.86,19327.83 16501.86,12334.24 16448.12,12334.24 "/>
    <line class="fil12 str1" x1="16501.94" y1="19326.2" x2="16501.94" y2= "12108.87" />
    <line class="fil12 str1" x1="16248.61" y1="19326.2" x2="16248.61" y2= "12108.87" />
    <line class="fil12 str1" x1="16006.81" y1="19326.2" x2="16006.81" y2= "12108.87" />
    <path class="fil13" d="M16715.46 18989.55l0 340.99 -922.17 0 0 -7124.06 330.02 0c-42.84,739.38 -299.36,5772.48 592.15,6783.07z"/>
    <path class="fil14" d="M16715.46 16494.79c-441.03,-1034.55 -431.35,-3236.3 -397.96,-4288.31l397.96 0 0 4288.31z"/>
    <g>
     <path class="fil11" d="M15742.8 19538.45l1023.14 0c17.42,0 31.55,-14.12 31.55,-31.54l0 -164.83c0,-17.42 -14.13,-31.55 -31.55,-31.55l-1023.14 0c-17.42,0 -31.55,14.13 -31.55,31.55l0 164.83c0,17.42 14.13,31.54 31.55,31.54z"/>
     <path class="fil13" d="M15741.69 19538.45l1025.27 0c16.86,0 30.53,-13.66 30.53,-30.52l0 -62.7 -1086.24 0 0 62.8c0,16.8 13.63,30.42 30.44,30.42z"/>
    </g>
    <g>
     <path class="fil11" d="M15650.39 19766.38l1207.97 0c18.89,0 34.2,-15.31 34.2,-34.2l0 -159.52c0,-18.89 -15.31,-34.21 -34.2,-34.21l-1207.97 0c-18.89,0 -34.2,15.32 -34.2,34.21l0 159.52c0,18.89 15.31,34.2 34.2,34.2z"/>
     <path class="fil13" d="M15649.17 19766.38l1210.3 0c18.27,0 33.09,-14.81 33.09,-33.09l0 -60.13 -1276.37 0 0 60.24c0,18.21 14.77,32.98 32.98,32.98z"/>
    </g>
    <path class="fil11" d="M15708.19 11978.56l1092.36 0c190.65,0 345.15,154.54 345.15,345.16 0,190.62 -154.5,345.16 -345.15,345.16 -165.32,0 -303.15,-116.41 -336.9,-271.64l-418.52 0c-33.75,155.23 -171.59,271.64 -336.94,271.64 -190.61,0 -345.15,-154.54 -345.15,-345.16 0,-190.62 154.54,-345.16 345.15,-345.16z"/>
    <path class="fil12 str1" d="M16045.5 12397.24c8.34,-109 -74.54,-275.55 -272.22,-281.61 -242.45,-7.43 -287.68,262.85 -174.72,356.36 112.95,93.5 274.02,4.79 246.19,-119.72 -25.19,-112.67 -176.24,-80.41 -144.97,0.9"/>
    <path class="fil12 str1" d="M16808.21 12353.17c31.27,-81.31 -119.79,-113.57 -144.97,-0.9 -27.83,124.51 133.24,213.22 246.19,119.72 112.95,-93.51 67.72,-363.79 -174.72,-356.36 -197.68,6.06 -280.56,172.61 -272.23,281.61"/>
    <path class="fil13" d="M15463.08 12080.93c-75.14,191.29 6.51,492.18 262.67,465.78 177,-18.24 252.96,-147.94 278.3,-205.78 7.48,-17.08 24.67,-27.72 43.31,-27.72l372.89 0c30.44,0 57.3,19.49 66.35,48.55 30.71,98.54 210.69,307.12 464.56,201.64 52.64,-21.88 105.17,-57.71 171.58,-118.77 -49.1,130.75 -174.24,224.25 -322.18,224.25 -165.32,0 -303.16,-116.41 -336.91,-271.64l-418.52 0c-37.91,174.38 -207.17,299.77 -399.24,266.18 -133.64,-23.38 -244.22,-127.64 -273.9,-260.02 -28.16,-125.62 12.37,-242.99 91.09,-322.47z"/>
   </g>
   <g>
    <path class="fil15" d="M11204.62 19405.61l15245.52 0c53.21,0 96.35,-43.14 96.35,-96.35l0 -209.52c0,-53.21 -43.14,-96.34 -96.35,-96.34l-15245.52 0c-53.21,0 -96.34,43.13 -96.34,96.34l0 209.52c0,53.21 43.13,96.35 96.34,96.35z"/>
    <path class="fil16" d="M11207.05 19405.61l15237.11 0c56.51,0 102.33,-45.82 102.33,-102.33l0 -98.78 -15438.21 0 0 102.33c0,54.56 44.22,98.78 98.77,98.78z"/>
    <path class="fil15" d="M10542.7 19807.81l16601.33 0c55.51,0 100.51,-45 100.51,-100.51l0 -201.18c0,-55.51 -45,-100.51 -100.51,-100.51l-16601.33 0c-55.51,0 -100.5,45 -100.5,100.51l0 201.18c0,55.51 44.99,100.51 100.5,100.51z"/>
    <path class="fil16" d="M10545.23 19807.81l16592.55 0c58.96,0 106.76,-47.79 106.76,-106.75l0 -94.35 -16802.34 0 0 98.06c0,56.91 46.12,103.04 103.03,103.04z"/>
    <path class="fil15" d="M9851.74 20210.02l18120.53 0c57.97,0 104.98,-47 104.98,-104.98l0 -192.25c0,-57.97 -47.01,-104.98 -104.98,-104.98l-18120.53 0c-57.98,0 -104.98,47.01 -104.98,104.98l0 192.25c0,57.98 47,104.98 104.98,104.98z"/>
    <path class="fil16" d="M9854.38 20210.02l18111.37 0c61.58,0 111.5,-49.92 111.5,-111.5l0 -89.6 -18330.49 0 0 93.47c0,59.44 48.18,107.63 107.62,107.63z"/>
    <path class="fil15" d="M28906.08 20383.51l0 -63.97c0,-60.48 -49.03,-109.52 -109.52,-109.52l-19731.16 0c-60.49,0 -109.53,49.04 -109.53,109.52l0 63.97 19950.21 0z"/>
   </g>
   <g>
    <polygon class="fil11" points="-8.29,19330.54 870.85,19330.54 870.85,12206.48 -8.29,12206.48 "/>
    <polygon class="fil3" points="105.9,19327.83 159.65,19327.83 159.65,12334.24 105.9,12334.24 "/>
    <polygon class="fil3" points="350.26,19327.83 404,19327.83 404,12334.24 350.26,12334.24 "/>
    <polygon class="fil3" points="603.5,19327.83 657.25,19327.83 657.25,12334.24 603.5,12334.24 "/>
    <line class="fil12 str1" x1="657.33" y1="19326.2" x2="657.33" y2= "12108.87" />
    <line class="fil12 str1" x1="404" y1="19326.2" x2="404" y2= "12108.87" />
    <line class="fil12 str1" x1="162.19" y1="19326.2" x2="162.19" y2= "12108.87" />
    <path class="fil13" d="M870.85 18989.55l0 340.99 -879.14 0 0 -7124.06 286.99 0c-42.84,739.38 -299.36,5772.48 592.15,6783.07z"/>
    <path class="fil14" d="M870.85 16494.79c-441.03,-1034.55 -431.35,-3236.3 -397.96,-4288.31l397.96 0 0 4288.31z"/>
    <g>
     <path class="fil11" d="M-8.29 19538.45l929.62 0c17.42,0 31.55,-14.12 31.55,-31.54l0 -164.83c0,-17.42 -14.13,-31.55 -31.55,-31.55l-929.62 0 0 227.92z"/>
     <path class="fil13" d="M-8.29 19538.45l930.64 0c16.86,0 30.53,-13.66 30.53,-30.52l0 -62.7 -961.17 0 0 93.22z"/>
    </g>
    <g>
     <path class="fil11" d="M-8.29 19766.38l1022.03 0c18.89,0 34.2,-15.31 34.2,-34.2l0 -159.52c0,-18.89 -15.31,-34.21 -34.2,-34.21l-1022.03 0 0 227.93z"/>
     <path class="fil13" d="M-8.29 19766.38l1023.14 0c18.28,0 33.09,-14.81 33.09,-33.09l0 -60.13 -1056.23 0 0 93.22z"/>
    </g>
    <path class="fil11" d="M-8.29 11978.56l964.23 0c190.65,0 345.15,154.54 345.15,345.16 0,190.62 -154.5,345.16 -345.15,345.16 -165.32,0 -303.16,-116.41 -336.9,-271.64l-418.52 0c-24.5,112.7 -103.88,204.92 -208.81,247l0 -665.68z"/>
    <path class="fil12 str1" d="M200.89 12397.24c7.39,-96.59 -56.88,-238.36 -209.18,-273.61m0 308.22c11.11,-23.33 14.93,-50.47 8.43,-79.58 -2.04,-9.11 -4.91,-17.26 -8.43,-24.53"/>
    <path class="fil12 str1" d="M963.59 12353.17c31.28,-81.31 -119.78,-113.57 -144.96,-0.9 -27.83,124.51 133.23,213.22 246.19,119.72 112.95,-93.51 67.72,-363.79 -174.72,-356.36 -197.68,6.06 -280.56,172.61 -272.23,281.61"/>
    <path class="fil13" d="M-8.29 12516.89c99.94,-46.49 148.47,-131.99 167.73,-175.96 7.48,-17.08 24.66,-27.72 43.31,-27.72l372.89 0c30.44,0 57.3,19.49 66.35,48.55 30.7,98.54 210.68,307.12 464.55,201.64 52.65,-21.88 105.18,-57.71 171.59,-118.77 -49.11,130.75 -174.25,224.25 -322.19,224.25 -165.31,0 -303.15,-116.41 -336.9,-271.64l-418.52 0c-24.5,112.7 -103.88,204.92 -208.81,247l0 -127.35z"/>
   </g>
   <path class="fil8" d="M9813.04 18977.85l2427.23 0 0 -4747.53c0,-670.26 -543.35,-1213.62 -1213.62,-1213.62 -670.26,0 -1213.61,543.36 -1213.61,1213.62l0 4747.53z"/>
   <path class="fil8" d="M9824.09 18977.85l2162.49 0c6.11,0 11.06,-4.95 11.06,-11.05l0 -4525.32c0,-603.26 -489.04,-1092.3 -1092.31,-1092.3 -603.25,0 -1092.29,489.04 -1092.29,1092.3l0 4525.32c0,6.1 4.95,11.05 11.05,11.05z"/>
   <path class="fil8" d="M4495.68 18977.85l2427.24 0 0 -4747.53c0,-670.26 -543.35,-1213.62 -1213.62,-1213.62 -670.26,0 -1213.62,543.36 -1213.62,1213.62l0 4747.53z"/>
   <path class="fil8" d="M4506.73 18977.85l2162.51 0c6.1,0 11.05,-4.95 11.05,-11.05l0 -4525.32c0,-603.26 -489.04,-1092.3 -1092.3,-1092.3l-0.01 0c-603.26,0 -1092.3,489.04 -1092.3,1092.3l0 4525.32c0,6.1 4.95,11.05 11.05,11.05z"/>
   <g>
    <path class="fil15" d="M-8.29 19405.61l5569.87 0c53.21,0 96.35,-43.14 96.35,-96.35l0 -209.52c0,-53.21 -43.14,-96.34 -96.35,-96.34l-5569.87 0 0 402.21z"/>
    <path class="fil16" d="M-8.29 19405.61l5563.89 0c56.51,0 102.33,-45.82 102.33,-102.33l0 -98.78 -5666.22 0 0 201.11z"/>
    <path class="fil15" d="M-8.29 19807.81l6263.76 0c55.51,0 100.51,-45 100.51,-100.51l0 -201.18c0,-55.51 -45,-100.51 -100.51,-100.51l-6263.76 0 0 402.2z"/>
    <path class="fil16" d="M-8.29 19807.81l6257.52 0c58.95,0 106.75,-47.79 106.75,-106.75l0 -94.35 -6364.27 0 0 201.1z"/>
    <path class="fil15" d="M-8.29 20210.02l7092 0c57.98,0 104.98,-47 104.98,-104.98l0 -192.25c0,-57.97 -47,-104.98 -104.98,-104.98l-7092 0 0 402.21z"/>
    <path class="fil16" d="M-8.29 20210.02l7085.48 0c61.58,0 111.5,-49.92 111.5,-111.5l0 -89.6 -7196.98 0 0 201.1z"/>
    <path class="fil15" d="M8017.52 20383.51l0 -63.97c0,-60.48 -49.03,-109.52 -109.52,-109.52l-7916.29 0 0 173.49 8025.81 0z"/>
   </g>
  </g>
 </g>
</svg>
