<?xml version="1.0" encoding="UTF-8"?>
<!DOCTYPE svg PUBLIC "-//W3C//DTD SVG 1.1//EN" "http://www.w3.org/Graphics/SVG/1.1/DTD/svg11.dtd">
<!-- Creator: CorelDRAW -->
<svg xmlns="http://www.w3.org/2000/svg" xml:space="preserve" width="203.793mm" height="203.793mm" version="1.1" style="shape-rendering:geometricPrecision; text-rendering:geometricPrecision; image-rendering:optimizeQuality; fill-rule:evenodd; clip-rule:evenodd"
viewBox="0 0 20379.3 20379.3"
 xmlns:xlink="http://www.w3.org/1999/xlink"
 xmlns:xodm="http://www.corel.com/coreldraw/odm/2003">
 <defs>
  <style type="text/css">
   <![CDATA[
    .str1 {stroke:#2A36A3;stroke-width:18.08;stroke-linecap:round;stroke-miterlimit:10;stroke-opacity:0.149020}
    .str0 {stroke:#C1CCFF;stroke-width:18.08;stroke-linecap:round;stroke-miterlimit:10;stroke-opacity:0.149020}
    .fil13 {fill:none;fill-rule:nonzero}
    .fil12 {fill:#282872;fill-rule:nonzero}
    .fil10 {fill:#2D2D82;fill-rule:nonzero}
    .fil3 {fill:#2F2F89;fill-rule:nonzero}
    .fil5 {fill:#3F3F9E;fill-rule:nonzero}
    .fil7 {fill:#5454AF;fill-rule:nonzero}
    .fil11 {fill:#777CF2;fill-rule:nonzero}
    .fil6 {fill:#7980F4;fill-rule:nonzero}
    .fil8 {fill:#8085F9;fill-rule:nonzero}
    .fil4 {fill:#8C8EFF;fill-rule:nonzero}
    .fil15 {fill:#D82D07;fill-rule:nonzero}
    .fil1 {fill:#E9AF54;fill-rule:nonzero}
    .fil17 {fill:#F29E2F;fill-rule:nonzero}
    .fil0 {fill:#F4C167;fill-rule:nonzero}
    .fil14 {fill:#FF3600;fill-rule:nonzero}
    .fil16 {fill:#FFAF3D;fill-rule:nonzero}
    .fil18 {fill:#FFC88E;fill-rule:nonzero}
    .fil2 {fill:#FFD489;fill-rule:nonzero}
    .fil9 {fill:white;fill-rule:nonzero}
   ]]>
  </style>
 </defs>
 <g id="Layer_x0020_1">
  <metadata id="CorelCorpID_0Corel-Layer"/>
  <g id="_2509843344320">
   <path class="fil0" d="M16111.5 20175.57l-11548.5 0c-465.6,0 -843.05,-377.43 -843.05,-843.03l0 -8256.21c0,-3460.01 2804.9,-6264.91 6264.92,-6264.91l393.02 0c3460.02,0 6264.92,2804.9 6264.92,6264.91l0 8567.93c0,293.43 -237.88,531.31 -531.31,531.31z"/>
   <path class="fil1" d="M14832.62 20175.57l-8010.68 0c-999.74,0 -1810.18,-810.44 -1810.18,-1810.18l0 -6881.54c0,-3211.81 2603.69,-5815.51 5815.52,-5815.51l0.01 0c3211.81,0 5815.52,2603.7 5815.52,5815.51l0 6881.54c0,999.74 -810.46,1810.18 -1810.19,1810.18z"/>
   <polygon class="fil2" points="20371.03,20383.51 -8.27,20383.51 -8.27,18500.26 20371.03,18500.26 "/>
   <path class="fil0" d="M4601.75 6635.35c0,299.46 -242.75,542.2 -542.2,542.2 -299.46,0 -542.2,-242.74 -542.2,-542.2 0,-299.45 242.74,-542.2 542.2,-542.2 299.45,0 542.2,242.75 542.2,542.2z"/>
   <path class="fil0" d="M3870.28 7868.88c0,153.21 -124.2,277.41 -277.4,277.41 -153.22,0 -277.41,-124.2 -277.41,-277.41 0,-153.2 124.19,-277.4 277.41,-277.4 153.2,0 277.4,124.2 277.4,277.4z"/>
   <path class="fil0" d="M17651.78 14105.94c0,157.64 -127.79,285.44 -285.44,285.44 -157.64,0 -285.43,-127.8 -285.43,-285.44 0,-157.64 127.79,-285.44 285.43,-285.44 157.65,0 285.44,127.8 285.44,285.44z"/>
   <path class="fil0" d="M17416.7 13303.51c0,99.9 -80.99,180.9 -180.89,180.9 -99.92,0 -180.91,-81 -180.91,-180.9 0,-99.9 80.99,-180.91 180.91,-180.91 99.9,0 180.89,81.01 180.89,180.91z"/>
  </g>
  <g id="_2509843343840">
   <path class="fil3" d="M13767.79 20383.51l0 -5521.08c0,-44.49 36.07,-80.56 80.55,-80.56l1631.41 0c44.49,0 80.56,36.07 80.56,80.56l0 5521.08 -1792.52 0z"/>
   <path class="fil4" d="M16150.36 14065.25l-11937.96 0c-42.18,0 -76.37,34.19 -76.37,76.37l0 916.24c0,42.17 34.19,76.37 76.37,76.37l11937.96 0c42.18,0 76.36,-34.2 76.36,-76.37l0 -916.24c0,-42.18 -34.18,-76.37 -76.36,-76.37z"/>
   <path class="fil4" d="M14899.92 13184.22l-2264.26 0c-112.32,0 -203.39,-91.05 -203.39,-203.39l0 -974.66c0,-112.33 91.07,-203.39 203.39,-203.39l2264.26 0c112.32,0 203.39,91.06 203.39,203.39l0 974.66c0,112.34 -91.07,203.39 -203.39,203.39z"/>
   <polygon class="fil4" points="13865.1,14065.25 13670.47,14065.25 13670.47,12802.82 13865.1,12802.82 "/>
   <path class="fil5" d="M14887.09 13082.43l-2238.6 0c-63.64,0 -115.23,-51.58 -115.23,-115.22l0 -947.41c0,-63.65 51.59,-115.24 115.23,-115.24l2238.6 0c63.64,0 115.23,51.59 115.23,115.24l0 947.41c0,63.64 -51.59,115.22 -115.23,115.22z"/>
   <path class="fil6" d="M4212.4 15134.23l11937.96 0c42.18,0 76.36,-34.2 76.36,-76.37l0 -916.24c0,-42.18 -34.18,-76.37 -76.36,-76.37l-235.53 0 0 649.63c0,42.18 -34.18,76.37 -76.36,76.37l-11702.44 0 0 266.61c0,42.17 34.19,76.37 76.37,76.37z"/>
   <path class="fil7" d="M5653.39 16357.61c0,355.34 -80.67,643.42 -180.21,643.42 -99.52,0 -180.2,-288.08 -180.2,-643.42 0,-355.36 80.68,-643.43 180.2,-643.43 99.54,0 180.21,288.07 180.21,643.43z"/>
   <path class="fil7" d="M5599.56 17447.98c0,133.85 -56.58,242.36 -126.38,242.36 -69.78,0 -126.36,-108.51 -126.36,-242.36 0,-133.85 56.58,-242.36 126.36,-242.36 69.8,0 126.38,108.51 126.38,242.36z"/>
   <path class="fil5" d="M4802.45 20383.51l0 -5406.72c0,-107.66 87.27,-194.92 194.92,-194.92l10368.02 0c107.66,0 194.92,87.26 194.92,194.92l0 5406.72 -10757.86 0z"/>
   <path class="fil3" d="M13767.79 20383.51l0 -5521.08c0,-44.49 36.07,-80.56 80.55,-80.56l1631.41 0c44.49,0 80.56,36.07 80.56,80.56l0 5521.08 -1792.52 0z"/>
   <path class="fil4" d="M16150.36 14065.25l-11937.96 0c-42.18,0 -76.37,34.19 -76.37,76.37l0 916.24c0,42.17 34.19,76.37 76.37,76.37l11937.96 0c42.18,0 76.36,-34.2 76.36,-76.37l0 -916.24c0,-42.18 -34.18,-76.37 -76.36,-76.37z"/>
   <polygon class="fil8" points="13865.1,14065.25 13670.47,14065.25 13670.47,12802.82 13865.1,12802.82 "/>
   <path class="fil6" d="M4212.4 15134.23l11937.96 0c42.18,0 76.36,-34.2 76.36,-76.37l0 -916.24c0,-42.18 -34.18,-76.37 -76.36,-76.37l-235.53 0 0 649.63c0,42.18 -34.18,76.37 -76.36,76.37l-11702.44 0 0 266.61c0,42.17 34.19,76.37 76.37,76.37z"/>
   <path class="fil7" d="M5653.39 16357.61c0,355.34 -80.67,643.42 -180.21,643.42 -99.52,0 -180.2,-288.08 -180.2,-643.42 0,-355.36 80.68,-643.43 180.2,-643.43 99.54,0 180.21,288.07 180.21,643.43z"/>
   <path class="fil7" d="M5599.56 17447.98c0,133.85 -56.58,242.36 -126.38,242.36 -69.78,0 -126.36,-108.51 -126.36,-242.36 0,-133.85 56.58,-242.36 126.36,-242.36 69.8,0 126.38,108.51 126.38,242.36z"/>
   <path class="fil4" d="M14899.92 13184.22l-2264.26 0c-112.32,0 -203.39,-91.05 -203.39,-203.39l0 -974.66c0,-112.33 91.07,-203.39 203.39,-203.39l2264.26 0c112.32,0 203.39,91.06 203.39,203.39l0 974.66c0,112.34 -91.07,203.39 -203.39,203.39z"/>
   <path class="fil5" d="M14887.09 13082.43l-2238.6 0c-63.64,0 -115.23,-51.58 -115.23,-115.22l0 -947.41c0,-63.65 51.59,-115.24 115.23,-115.24l2238.6 0c63.64,0 115.23,51.59 115.23,115.24l0 947.41c0,63.64 -51.59,115.22 -115.23,115.22z"/>
  </g>
  <g id="_2509843344464">
   <g>
    <path class="fil9" d="M18771.58 10834.39l-90.74 -272.26c-13.24,-39.76 -69.48,-39.76 -82.74,0l-90.74 272.26c-4.33,13.01 -14.52,23.21 -27.52,27.56l-273.74 91.61c-39.68,13.29 -39.68,69.43 0,82.71l273.74 91.61c13,4.35 23.19,14.56 27.52,27.56l90.74 272.27c13.26,39.76 69.5,39.76 82.74,0l90.74 -272.27c4.34,-13 14.54,-23.21 27.53,-27.56l273.73 -91.61c39.69,-13.28 39.69,-69.42 0,-82.71l-273.73 -91.61c-12.99,-4.35 -23.19,-14.55 -27.53,-27.56z"/>
   </g>
   <g>
    <path class="fil9" d="M2862.98 4079.26l-71.68 -215.06c-10.47,-31.4 -54.89,-31.4 -65.36,0l-71.68 215.06c-3.42,10.27 -11.47,18.34 -21.74,21.78l-216.22 72.36c-31.35,10.5 -31.35,54.85 0,65.34l216.22 72.36c10.27,3.44 18.32,11.5 21.74,21.78l71.68 215.06c10.47,31.4 54.89,31.4 65.36,0l71.68 -215.06c3.42,-10.28 11.48,-18.34 21.74,-21.78l216.23 -72.36c31.34,-10.49 31.34,-54.84 0,-65.34l-216.23 -72.36c-10.26,-3.44 -18.32,-11.51 -21.74,-21.78z"/>
   </g>
   <g>
    <g>
     <path class="fil9" d="M17802.83 1721.26l-94.85 -284.61c-13.86,-41.56 -72.65,-41.56 -86.5,0l-94.86 284.61c-4.53,13.6 -15.19,24.28 -28.78,28.82l-286.15 95.78c-41.49,13.88 -41.49,72.56 0,86.45l286.15 95.77c13.59,4.55 24.25,15.22 28.78,28.81l94.86 284.63c13.85,41.56 72.64,41.56 86.5,0l94.85 -284.63c4.53,-13.59 15.2,-24.26 28.78,-28.81l286.15 -95.77c41.49,-13.89 41.49,-72.57 0,-86.45l-286.15 -95.78c-13.58,-4.54 -24.25,-15.22 -28.78,-28.82z"/>
    </g>
   </g>
   <g>
    <g>
     <path class="fil9" d="M1794.41 14016.11l-94.87 -284.61c-13.85,-41.56 -72.64,-41.56 -86.49,0l-94.86 284.61c-4.54,13.6 -15.19,24.28 -28.78,28.82l-286.15 95.78c-41.48,13.89 -41.48,72.57 0,86.45l286.15 95.77c13.59,4.55 24.24,15.22 28.78,28.82l94.86 284.62c13.85,41.56 72.64,41.56 86.49,0l94.87 -284.62c4.52,-13.6 15.19,-24.27 28.76,-28.82l286.16 -95.77c41.49,-13.88 41.49,-72.56 0,-86.45l-286.16 -95.78c-13.58,-4.54 -24.24,-15.22 -28.76,-28.82z"/>
    </g>
   </g>
  </g>
  <g id="_2509841701264">
   <g>
    <path class="fil5" d="M6126.7 10099.85c0,0 181.22,407.12 36.13,650.1 -88.17,147.67 -74.86,71.06 -61.81,36.71 66.48,-175.24 30.17,-456.1 -135.56,-626.06 0,0 104.45,-54.59 161.24,-60.75z"/>
    <path class="fil10" d="M6049.95 10122.09c217.21,356.68 63.13,671.71 42.23,710.99 3.13,12.28 20.33,1.16 70.65,-83.13 145.09,-242.98 -36.13,-650.11 -36.13,-650.11 -21.5,2.34 -49.84,11.63 -76.75,22.25z"/>
   </g>
   <g>
    <path class="fil5" d="M5707.59 10268.46c0,0 162.53,365.12 32.41,583.04 -79.06,132.43 -67.13,63.73 -55.43,32.91 59.62,-157.15 27.06,-409.05 -121.57,-561.47 0,0 93.68,-48.95 144.59,-54.48z"/>
    <path class="fil10" d="M5638.77 10288.41c194.8,319.87 56.61,602.4 37.87,637.63 2.81,11.02 18.23,1.04 63.36,-74.54 130.12,-217.92 -32.4,-583.04 -32.4,-583.04 -19.29,2.09 -44.7,10.42 -68.83,19.95z"/>
   </g>
   <g>
    <path class="fil5" d="M5306.86 10353.91c0,0 157.49,353.83 31.41,565 -76.62,128.34 -65.06,61.76 -53.74,31.9 57.8,-152.29 26.23,-396.39 -117.8,-544.1 0,0 90.78,-47.44 140.13,-52.8z"/>
    <path class="fil10" d="M5240.16 10373.25c188.77,309.97 54.86,583.77 36.7,617.91 2.72,10.67 17.67,1 61.41,-72.25 126.08,-211.17 -31.41,-565 -31.41,-565 -18.69,2.03 -43.31,10.09 -66.7,19.34z"/>
   </g>
   <g>
    <path class="fil5" d="M4845.22 10465.09c0,0 151,339.22 30.11,541.69 -73.46,123.03 -62.37,59.21 -51.51,30.58 55.4,-146 25.15,-380.04 -112.95,-521.66 0,0 87.04,-45.47 134.35,-50.61z"/>
    <path class="fil10" d="M4781.27 10483.62c180.99,297.19 52.6,559.69 35.19,592.42 2.61,10.24 16.94,0.96 58.87,-69.26 120.89,-202.47 -30.11,-541.69 -30.11,-541.69 -17.91,1.94 -41.51,9.68 -63.95,18.53z"/>
   </g>
   <g>
    <path class="fil5" d="M4445.66 10543.96c0,0 140.83,316.39 28.08,505.22 -68.52,114.75 -58.18,55.21 -48.04,28.51 51.66,-136.17 23.45,-354.44 -105.34,-486.51 0,0 81.17,-42.41 125.3,-47.22z"/>
    <path class="fil10" d="M4386.01 10561.26c168.8,277.17 49.06,521.98 32.82,552.52 2.43,9.54 15.81,0.89 54.91,-64.6 112.75,-188.83 -28.08,-505.22 -28.08,-505.22 -16.72,1.82 -38.73,9.04 -59.65,17.3z"/>
   </g>
   <path class="fil5" d="M12432.76 7722.1c0,0 216.22,203.54 326.24,476.42 110.02,272.89 1415.66,888.19 1443.28,997.38 27.62,109.19 45.7,575.67 -404.1,541.18 -449.8,-34.5 -110.4,-409.48 -416.82,-653.46 -306.43,-243.98 -880.83,-667.75 -1041.87,-958.95 -161.04,-291.19 93.27,-402.57 93.27,-402.57z"/>
   <path class="fil10" d="M13648.28 9368.67c-41.35,-349.55 -257.2,-444.12 -852.55,-875.25 -595.36,-431.14 -419.83,-686.51 -419.83,-686.51l-37.73 -9.39c-50.7,62.93 -86.6,168.2 1.32,327.15 161.03,291.2 735.44,714.97 1041.87,958.95 306.42,243.98 -32.98,618.96 416.82,653.46 243.8,18.7 350,-109.82 391.87,-248.82 -140.1,109.57 -504.61,194.61 -541.77,-119.59z"/>
   <g>
    <path class="fil5" d="M9546.53 7877.01c0,0 -461.76,1348.3 616.13,2384.71 104.71,100.68 232.61,111.04 120.61,-21.18 -283.31,-334.48 -876.39,-1542.48 -455.89,-2358.85 0,0 -72.85,-84.96 -280.85,-4.68z"/>
    <g>
     <path class="fil10" d="M9665.66 7845.52c-33.6,4.25 -72.85,13.61 -119.13,31.49 0,0 -356.95,1043.68 291.27,2000.4 49.25,61.96 97.68,122.94 144.61,182.09 -760.52,-1172.56 -316.79,-2213.91 -316.75,-2213.98z"/>
     <path class="fil11" d="M10056.24 10152.58c-24.07,-30.36 -48.74,-61.45 -73.83,-93.08 8.14,12.56 16.51,25.15 24.93,37.74 16.04,18.49 31.99,37 48.9,55.34z"/>
    </g>
   </g>
   <g>
    <path class="fil5" d="M8907.18 8056.36c0,0 -230.43,1406.43 1005.18,2248.58 120.03,81.81 247.86,70.7 115.4,-40.99 -335.13,-282.56 -1121.34,-1374.74 -842.86,-2249.81 0,0 -86.01,-71.61 -277.72,42.22z"/>
    <g>
     <path class="fil10" d="M9019.4 8005.45c-32.42,9.8 -69.55,25.58 -112.22,50.91 0,0 -177.89,1088.6 620.79,1923.83 58.89,52.87 116.81,104.93 172.95,155.42 -945.4,-1029.31 -681.54,-2130.08 -681.52,-2130.16z"/>
     <path class="fil11" d="M9789.23 10215.08c-28.79,-25.92 -58.3,-52.47 -88.31,-79.47 10.13,11.02 20.47,22.05 30.88,33.06 18.89,15.55 37.7,31.15 57.43,46.41z"/>
    </g>
   </g>
   <g>
    <path class="fil5" d="M10032.26 7818.42c0,0 -490.86,1414.96 637.5,2508.58 109.61,106.23 243.96,117.66 126.83,-21.75 -296.31,-352.67 -914.51,-1624.6 -469.19,-2480.73 0,0 -76.22,-89.58 -295.14,-6.1z"/>
    <g>
     <path class="fil10" d="M10157.59 7785.84c-35.32,4.33 -76.61,14 -125.33,32.58 0,0 -379.45,1095.28 297.73,2103.37 51.49,65.31 102.13,129.6 151.2,191.95 -794.3,-1235.37 -323.64,-2327.82 -323.6,-2327.9z"/>
     <path class="fil11" d="M10558.38 10211.87c-25.16,-32.01 -50.95,-64.79 -77.19,-98.13 8.5,13.23 17.24,26.49 26.04,39.77 16.77,19.49 33.46,39 51.15,58.36z"/>
    </g>
   </g>
   <g>
    <path class="fil5" d="M10570.81 7741.55c0,0 -505.92,1409.65 610.74,2515.22 108.47,107.41 242.7,120.27 127.05,-20.39 -292.53,-355.8 -897.15,-1634.25 -442.74,-2485.59 0,0 -75.26,-90.38 -295.05,-9.24z"/>
    <g>
     <path class="fil10" d="M10696.47 7710.31c-35.37,3.95 -76.75,13.18 -125.66,31.24 0,0 -391.1,1091.17 275.3,2106.42 50.79,65.86 100.75,130.69 149.15,193.55 -781.09,-1243.76 -298.83,-2331.14 -298.79,-2331.21z"/>
     <path class="fil11" d="M11071.41 10140.46c-24.82,-32.26 -50.26,-65.32 -76.15,-98.94 8.37,13.33 16.96,26.68 25.62,40.04 16.56,19.68 33.03,39.37 50.53,58.9z"/>
    </g>
   </g>
   <g>
    <path class="fil5" d="M11157.77 7793.19c0,0 -515.45,1169.01 368.1,2177.08 85.83,97.93 199.28,116.94 109.35,-9.7 -227.49,-320.4 -664.92,-1444.69 -226.94,-2141.74 0,0 -58.6,-81.45 -250.51,-25.64z"/>
    <g>
     <path class="fil10" d="M11266.57 7774.17c-30.33,1.23 -66.1,6.59 -108.81,19.02 0,0 -398.55,904.93 107.33,1809 39.24,59.1 77.85,117.27 115.24,173.68 -589.7,-1105.42 -113.79,-2001.63 -113.76,-2001.7z"/>
     <path class="fil11" d="M11439.16 9864.66c-19.17,-28.96 -38.82,-58.61 -58.83,-88.79 6.32,11.85 12.83,23.73 19.4,35.62 12.89,17.74 25.73,35.49 39.43,53.17z"/>
    </g>
   </g>
   <g>
    <path class="fil5" d="M11750.27 7853.31c0,0 -179.46,928.04 623.74,1509.82 78.02,56.52 162.99,51.57 77.28,-24.99 -216.81,-193.69 -717.33,-932.69 -516.1,-1507.56 0,0 -55.67,-49.11 -184.92,22.73z"/>
    <g>
     <path class="fil10" d="M11825.63 7821.69c-21.68,5.88 -46.6,15.63 -75.36,31.62 0,0 -138.59,718.32 375.06,1287.22 38.03,36.18 75.45,71.79 111.71,106.32 -607.25,-700.35 -411.42,-1425.12 -411.41,-1425.16z"/>
     <path class="fil11" d="M12294.08 9301.21c-18.59,-17.72 -37.64,-35.89 -57.04,-54.36 6.5,7.5 13.15,15.01 19.85,22.51 12.22,10.66 24.4,21.36 37.19,31.85z"/>
    </g>
   </g>
   <g>
    <path class="fil5" d="M11671.1 7813.12c0,0 -442.12,1041.63 352.75,1923.53 77.23,85.67 177.93,101.13 96.73,-9.93 -205.41,-280.95 -606.62,-1271.27 -227.32,-1893.96 0,0 -52.89,-71.42 -222.16,-19.64z"/>
    <g>
     <path class="fil10" d="M11767.22 7794.94c-26.84,1.47 -58.45,6.66 -96.12,18.18 0,0 -341.85,806.33 117.28,1600.76 35.48,51.86 70.38,102.91 104.19,152.39 -535.82,-971.71 -125.37,-1771.27 -125.35,-1771.33z"/>
     <path class="fil11" d="M11945.76 9644.18c-17.33,-25.4 -35.1,-51.43 -53.19,-77.91 5.74,10.42 11.66,20.87 17.61,31.31 11.65,15.55 23.23,31.12 35.58,46.6z"/>
    </g>
   </g>
   <path class="fil5" d="M6307.1 9977.57c0,0 -49.55,-260.07 403.22,-624.97 452.79,-364.9 735.85,-1138.14 1470.17,-1185.55 734.34,-47.42 958.94,622.76 691.66,840.69 -267.28,217.91 -363.1,153.45 -474.71,369.97 -111.61,216.52 -467.44,-76.58 -709.43,152.82 -242,229.38 -464.62,390.74 -767.6,304.94 -302.98,-85.81 -605.56,371.4 -613.31,142.1z"/>
   <path class="fil5" d="M9628.18 10863.14c0,0 -562.99,1270.24 -815.9,1463.67 -252.92,193.43 -132.96,271.69 -100.25,274.6 32.71,2.91 107.87,-25.6 107.87,-25.6 0,0 -12.44,130.79 58.79,129.23 71.24,-1.56 97.57,-235.4 197.27,-397.16 99.69,-161.75 599.09,-1096.05 854.87,-1289.74 255.79,-193.69 265.14,-369.8 -28.21,-366.66 0,0 -299.79,-315 -274.44,211.66z"/>
   <path class="fil5" d="M8671.95 13700.56c0,0 604.56,446.52 704.89,418.77 100.33,-27.74 81.81,-72.08 56.59,-163.29 -25.22,-91.21 223.63,-34.51 102.42,-190.58 -148.95,-191.81 -655.43,-504.72 -728.49,-375.62 -31.56,55.76 -28.65,130.34 -28.65,130.34 0,0 -208,84.05 -106.76,180.38z"/>
   <path class="fil5" d="M9659.5 13891.01c0,0 -152.01,-20.37 -154.6,90.8 -2.59,111.16 483.91,295.41 733.33,146.17 0,0 50.6,-108.92 -49.57,-139.55 -100.17,-30.64 -254.81,69.45 -529.16,-97.42z"/>
   <path class="fil5" d="M9700.29 13803.1c0,0 71.17,-115.19 103.37,-107.76 32.21,7.42 241.2,155.62 294.74,195.19 53.56,39.56 -304.13,22.91 -398.11,-87.43z"/>
   <path class="fil5" d="M10252.26 13856.28c0,0 39.09,-75.14 112.78,-89.78 73.69,-14.64 159.55,43.48 159.55,43.48 0,0 -116.38,27.25 -159.05,96.06 -61.39,98.98 -149,30.26 -113.28,-49.76z"/>
   <path class="fil5" d="M9058.34 12969.76c0,0 167.38,-18.78 207.93,45.52 40.54,64.31 -32.15,270.15 -65.65,297.14 -33.49,26.99 -170.88,-105.3 -244.99,-103.87 -74.12,1.45 -247.41,-0.35 -249.94,-147.45 -2.54,-147.08 124.87,-271.67 201.19,-194.49 76.34,77.18 151.46,103.15 151.46,103.15z"/>
   <path class="fil5" d="M15532.12 9409.69c0,0 -173.89,-61.15 -81.35,-150.1 92.55,-88.95 628.91,181.13 696.6,509.76 0,0 -15.21,75.76 -119.45,14.47 -104.22,-61.31 -139.76,-270.97 -495.8,-374.13z"/>
   <g>
    <path class="fil5" d="M8818 8177.56c-31.75,-13.7 -118.69,-205.39 -118.56,-241.39 0.12,-36 37.1,-123.32 27.52,-246.15 -9.58,-122.82 11.24,-345.14 44.35,-356.28 33.1,-11.13 140.69,25.11 154.62,40.04 13.93,14.94 -5.63,290.32 5.77,307.82 11.4,17.5 156.85,-126.13 225.85,-78.04 68.99,48.08 -0.96,166.86 66.55,262.92 67.5,96.05 97.99,213.48 -34.96,205.07 -204.02,-12.93 -295.71,138.56 -371.14,106.01z"/>
    <path class="fil10" d="M9224.1 7866.48c-3.24,-4.61 21.85,155.99 -332.39,165.97 -145.62,4.11 -164.75,-342.43 -164.75,-342.43 9.58,122.83 -27.4,210.15 -27.52,246.15 -0.13,36 86.81,227.69 118.56,241.39 75.43,32.55 167.12,-118.94 371.14,-106.01 132.95,8.41 102.46,-109.02 34.96,-205.07z"/>
    <path class="fil7" d="M9157.54 7603.56c-68.99,-48.09 -214.44,95.54 -225.84,78.04 -11.4,-17.5 8.16,-292.88 -5.77,-307.82 -13.93,-14.93 -121.52,-51.17 -154.62,-40.04 -4.91,1.64 -9.51,8.39 -13.82,18.32 34.27,2.57 143.7,17.07 134.23,97.47 -11.18,95.17 -24.72,316.55 20.8,324.13 40.25,6.68 168.82,-132.27 272.99,-129.32 -4.69,-16.27 -12.91,-30.28 -27.97,-40.78z"/>
   </g>
   <g>
    <path class="fil5" d="M9428.88 8051.56c-30.91,-13.33 -115.51,-199.86 -115.38,-234.89 0.13,-35.03 36.09,-119.99 26.77,-239.5 -9.31,-119.53 10.94,-335.84 43.16,-346.68 32.22,-10.84 136.9,24.42 150.46,38.96 13.55,14.53 -5.49,282.48 5.61,299.51 11.09,17.03 152.62,-122.73 219.75,-75.94 67.13,46.79 -0.92,162.38 64.76,255.83 65.67,93.46 95.34,207.74 -34.01,199.53 -198.52,-12.57 -287.74,134.85 -361.12,103.18z"/>
    <path class="fil10" d="M9824.01 7748.85c-3.16,-4.48 21.26,151.78 -323.42,161.5 -141.7,4 -160.32,-333.19 -160.32,-333.19 9.32,119.52 -26.64,204.48 -26.77,239.51 -0.13,35.03 84.47,221.56 115.38,234.89 73.38,31.67 162.6,-115.75 361.12,-103.18 129.35,8.21 99.69,-106.07 34.01,-199.53z"/>
    <path class="fil7" d="M9759.25 7493.02c-67.13,-46.79 -208.66,92.97 -219.75,75.94 -11.1,-17.03 7.94,-284.98 -5.61,-299.51 -13.56,-14.54 -118.24,-49.8 -150.46,-38.96 -4.78,1.61 -9.25,8.16 -13.44,17.81 33.34,2.51 139.81,16.62 130.62,94.86 -10.88,92.6 -24.08,308.01 20.23,315.38 39.16,6.5 164.27,-128.7 265.63,-125.83 -4.57,-15.83 -12.56,-29.47 -27.22,-39.69z"/>
   </g>
   <g>
    <path class="fil5" d="M9943.1 7823.55c-25.51,-21.28 -53.3,-221.52 -43.38,-254.63 9.94,-33.13 67.78,-103.45 92.45,-219.19 24.67,-115.72 104.46,-314.79 137.99,-316.01 33.51,-1.24 122.71,61.48 131.47,79.03 8.75,17.55 -84.33,265.82 -78.6,285.05 5.73,19.22 178.83,-73.4 229.25,-10.31 50.42,63.1 -46.36,153.42 -10.38,260.28 35.96,106.86 32.02,223.31 -88.11,179.31 -184.36,-67.52 -310.09,47 -370.69,-3.53z"/>
    <path class="fil10" d="M10401.9 7647.77c-1.74,-5.13 -22.4,149.61 -351.35,62.23 -135.23,-35.92 -58.38,-360.27 -58.38,-360.27 -24.67,115.74 -82.51,186.06 -92.45,219.19 -9.92,33.11 17.87,233.35 43.38,254.63 60.59,50.53 186.33,-63.99 370.69,3.53 120.13,44 124.07,-72.46 88.11,-179.31z"/>
    <path class="fil7" d="M10412.28 7387.49c-50.42,-63.09 -223.52,29.53 -229.25,10.31 -5.73,-19.23 87.35,-267.5 78.6,-285.05 -8.76,-17.55 -97.96,-80.27 -131.47,-79.03 -4.98,0.17 -11.05,5.13 -17.73,13.09 30.86,11.72 127.67,54.9 97.05,126.37 -36.24,84.6 -109.07,284.78 -69.21,304.16 35.23,17.14 191.53,-75.78 286.65,-44.66 0.12,-16.26 -3.62,-31.41 -14.64,-45.19z"/>
   </g>
   <g>
    <path class="fil5" d="M10499.28 7726.8c-20.85,-24.69 -13.68,-221.27 1.44,-251.33 15.11,-30.05 82.43,-87.68 125.61,-194.41 43.18,-106.73 153.26,-284.01 185.59,-279.52 32.34,4.49 107.22,79.64 112.65,97.93 5.42,18.3 -125.72,240.49 -123.47,259.88 2.24,19.4 183.76,-40.13 221.42,28.85 37.67,68.98 -70.33,139.18 -53.92,247.66 16.42,108.48 -7.02,219.4 -114.7,156.96 -165.26,-95.85 -305.1,-7.35 -354.62,-66.02z"/>
    <path class="fil10" d="M10968.6 7635.86c-0.78,-5.21 -46.73,139.58 -347.18,0.29 -123.52,-57.26 4.91,-355.09 4.91,-355.09 -43.18,106.73 -110.5,164.36 -125.61,194.41 -15.12,30.06 -22.29,226.64 -1.44,251.33 49.52,58.67 189.36,-29.83 354.62,66.02 107.68,62.44 131.12,-48.48 114.7,-156.96z"/>
    <path class="fil7" d="M11022.52 7388.2c-37.66,-68.98 -219.18,-9.45 -221.42,-28.85 -2.25,-19.39 128.89,-241.58 123.47,-259.88 -5.43,-18.29 -80.31,-93.44 -112.65,-97.94 -4.79,-0.66 -11.45,3.06 -19.17,9.57 27.57,16.43 113.06,74.17 71.64,137.49 -49.02,74.93 -152.62,254.45 -117.7,279.77 30.87,22.36 196.33,-40.27 282.23,5.61 2.86,-15.56 1.83,-30.71 -6.4,-45.77z"/>
   </g>
   <g>
    <path class="fil5" d="M11047.68 7835.22c-21.83,-21.85 -30.69,-209.59 -18.7,-239.41 11.98,-29.82 71.47,-90.07 104.07,-195.12 32.59,-105.07 123.24,-282.64 154.38,-280.95 31.14,1.68 108.44,67.25 115.06,84.25 6.63,16.98 -100.48,238.99 -96.8,257.27 3.69,18.28 171.76,-52.88 213.12,9.79 41.37,62.66 -55.85,138.13 -31.55,240.09 24.29,101.96 10.82,209.46 -96.68,158.6 -165,-78.06 -291.06,17.36 -342.9,-34.52z"/>
    <path class="fil10" d="M11487.26 7711.14c-1.17,-4.88 -33.36,136.62 -330.53,28.01 -122.18,-44.66 -23.68,-338.46 -23.68,-338.46 -32.6,105.05 -92.09,165.3 -104.07,195.12 -11.99,29.82 -3.13,217.56 18.7,239.41 51.84,51.88 177.9,-43.54 342.9,34.52 107.5,50.86 120.97,-56.64 96.68,-158.6z"/>
    <path class="fil7" d="M11518.81 7471.05c-41.36,-62.67 -209.43,8.49 -213.12,-9.79 -3.68,-18.28 103.43,-240.29 96.8,-257.27 -6.62,-17 -83.92,-82.57 -115.06,-84.25 -4.63,-0.26 -10.66,3.81 -17.51,10.63 27.58,13.44 113.57,61.59 79.2,125.17 -40.69,75.27 -125,254.45 -89.72,275.77 31.18,18.83 183.71,-54.01 269.15,-17.19 1.48,-15.04 -0.71,-29.38 -9.74,-43.07z"/>
   </g>
   <g>
    <path class="fil5" d="M12037.16 7891.15c23.13,-19.18 48.82,-200.24 39.92,-230.22 -8.88,-29.98 -61.04,-93.77 -83.04,-198.51 -21.99,-104.76 -93.64,-285.04 -123.97,-286.24 -30.31,-1.21 -111.16,55.28 -119.14,71.13 -7.97,15.86 75.59,240.69 70.34,258.06 -5.23,17.38 -161.58,-66.87 -207.35,-9.92 -45.79,56.93 41.53,138.9 8.7,235.46 -32.83,96.57 -29.58,201.92 79.21,162.44 166.95,-60.58 280.38,43.34 335.33,-2.2z"/>
    <path class="fil10" d="M11622.62 7730.91c1.57,-4.63 19.86,135.4 317.65,57.24 122.43,-32.13 53.77,-325.73 53.77,-325.73 22,104.74 74.16,168.52 83.04,198.51 8.9,29.98 -16.79,211.04 -39.92,230.21 -54.95,45.55 -168.38,-58.37 -335.33,2.21 -108.79,39.48 -112.04,-65.87 -79.21,-162.44z"/>
    <path class="fil7" d="M11613.92 7495.45c45.77,-56.95 202.12,27.3 207.35,9.92 5.25,-17.37 -78.31,-242.2 -70.34,-258.06 7.98,-15.85 88.83,-72.34 119.14,-71.13 4.51,0.17 9.99,4.67 15.99,11.9 -27.93,10.51 -115.62,49.32 -88.12,114.04 32.56,76.63 97.91,257.9 61.79,275.32 -31.92,15.41 -173.03,-69.05 -259.18,-41.16 -0.06,-14.71 3.37,-28.4 13.37,-40.83z"/>
   </g>
   <g>
    <path class="fil5" d="M12589.51 7848.16c18.49,-21.57 13.53,-194.43 0.45,-220.94 -13.08,-26.53 -71.87,-77.64 -109.1,-171.76 -37.24,-94.1 -132.8,-250.69 -161.25,-246.97 -28.45,3.72 -94.79,69.28 -99.68,85.32 -4.9,16.05 108.87,212.26 106.77,229.29 -2.11,17.03 -161.27,-36.52 -194.84,23.85 -33.58,60.38 60.88,122.83 45.71,218.07 -15.18,95.23 4.68,192.91 99.77,138.74 145.92,-83.12 268.24,-4.37 312.17,-55.6z"/>
    <path class="fil10" d="M12177.57 7765.02c0.72,-4.57 40.13,123.01 305.19,2.61 108.96,-49.5 -1.9,-312.17 -1.9,-312.17 37.23,94.12 96.02,145.23 109.1,171.76 13.08,26.51 18.04,199.37 -0.45,220.94 -43.93,51.23 -166.25,-27.52 -312.17,55.6 -95.09,54.17 -114.95,-43.51 -99.77,-138.74z"/>
    <path class="fil7" d="M12131.86 7546.95c33.57,-60.37 192.73,-6.82 194.84,-23.85 2.1,-17.03 -111.67,-213.24 -106.77,-229.29 4.89,-16.04 71.23,-81.6 99.68,-85.32 4.22,-0.55 10.04,2.76 16.8,8.53 -24.36,14.27 -99.89,64.43 -63.91,120.37 42.57,66.21 132.43,224.72 101.55,246.73 -27.29,19.46 -172.31,-36.73 -248.13,3.02 -2.39,-13.69 -1.4,-27 5.94,-40.19z"/>
   </g>
   <g>
    <path class="fil5" d="M13095.8 7671.23c14.68,-24.79 -20.59,-196.5 -38.3,-220.69 -17.71,-24.19 -85.37,-64.92 -139.05,-152.36 -53.68,-87.45 -176.55,-227.04 -204.31,-218.33 -27.76,8.71 -82.5,85.8 -84.57,102.68 -2.08,16.88 145.93,192.83 146.82,210.21 0.87,17.37 -167.44,-8.18 -190.37,57.98 -22.94,66.18 82.33,111.97 83.88,209.73 1.56,97.75 38.5,191.8 123.94,121.04 131.14,-108.59 267.07,-51.41 301.96,-110.26z"/>
    <path class="fil10" d="M12669.9 7660.45c-0.07,-4.7 61.65,115.79 305.19,-50.91 100.13,-68.52 -56.64,-311.36 -56.64,-311.36 53.68,87.44 121.34,128.17 139.05,152.36 17.71,24.19 52.98,195.9 38.3,220.69 -34.89,58.85 -170.82,1.67 -301.96,110.26 -85.44,70.76 -122.4,-23.29 -123.94,-121.04z"/>
    <path class="fil7" d="M12586.02 7450.72c22.93,-66.16 191.24,-40.61 190.37,-57.98 -0.89,-17.38 -148.9,-193.33 -146.82,-210.21 2.07,-16.88 56.81,-93.97 84.57,-102.68 4.11,-1.29 10.51,1 18.27,5.58 -21.82,18.51 -88.44,81.85 -42.71,131.39 54.13,58.65 171.64,201.16 144.67,228.55 -23.84,24.21 -178.49,-6.45 -247.22,46.53 -4.81,-13.26 -6.14,-26.72 -1.13,-41.18z"/>
   </g>
   <g>
    <path class="fil5" d="M13546.41 7456.77c9.73,-25.44 -50.57,-179.85 -70.94,-199.57 -20.37,-19.71 -89.93,-46.87 -153.91,-119.79 -64,-72.92 -200.81,-183.4 -225.29,-170.85 -24.48,12.55 -63.19,93.13 -62.42,109.19 0.76,16.07 166.8,156.43 170.4,172.47 3.59,16.05 -157.36,19.11 -168.16,84.45 -10.82,65.34 94.61,91.2 111.66,182.06 17.07,90.87 66.52,172.61 134.86,93.02 104.86,-122.15 240.68,-90.57 263.8,-150.98z"/>
    <path class="fil10" d="M13147.75 7514.73c-0.8,-4.35 75.95,98.08 276.31,-96.18 82.38,-79.85 -102.5,-281.14 -102.5,-281.14 63.98,72.92 133.54,100.08 153.91,119.79 20.37,19.72 80.67,174.13 70.94,199.56 -23.11,60.42 -158.94,28.84 -263.8,150.99 -68.34,79.59 -117.8,-2.15 -134.86,-93.02z"/>
    <path class="fil7" d="M13036.09 7332.67c10.8,-65.34 171.75,-68.4 168.16,-84.45 -3.6,-16.04 -169.64,-156.4 -170.4,-172.47 -0.77,-16.06 37.94,-96.64 62.41,-109.19 3.64,-1.86 9.96,-0.75 17.93,2.27 -17.39,20.74 -69.37,90.41 -18.83,129.29 59.81,46.01 192.1,160.06 171.33,189.89 -18.35,26.38 -167.38,22.5 -222.98,82.86 -6.59,-11.59 -9.99,-23.93 -7.62,-38.2z"/>
   </g>
   <g>
    <path class="fil5" d="M13928.78 7202.41c7.45,-25.9 -65.01,-173.03 -86.76,-190.75 -21.74,-17.72 -92.61,-38.63 -161.85,-105.12 -69.24,-66.49 -213.42,-163.87 -236.5,-149.44 -23.08,14.43 -54.45,97.15 -52.33,112.92 2.11,15.78 177.64,140.14 182.53,155.66 4.9,15.53 -153.51,32.11 -158.66,97.43 -5.14,65.32 100.97,81.93 125.45,170.07 24.48,88.14 80.12,164.56 140.78,80.33 93.09,-129.26 229.65,-109.58 247.34,-171.1z"/>
    <path class="fil10" d="M13540.66 7293.18c-1.18,-4.23 83.14,90.28 264.29,-118.11 74.47,-85.69 -124.78,-268.53 -124.78,-268.53 69.24,66.49 140.11,87.4 161.85,105.12 21.75,17.72 94.21,164.85 86.76,190.75 -17.69,61.52 -154.25,41.84 -247.34,171.1 -60.66,84.23 -116.31,7.81 -140.78,-80.33z"/>
    <path class="fil7" d="M13415.21 7123.11c5.15,-65.32 163.56,-81.92 158.66,-97.43 -4.89,-15.52 -180.42,-139.88 -182.53,-155.66 -2.12,-15.77 29.25,-98.49 52.33,-112.92 3.42,-2.13 9.75,-1.58 17.86,0.73 -15.39,21.92 -60.76,94.98 -7.66,129.04 62.85,40.31 202.87,141.62 184.92,172.78 -15.87,27.54 -163.12,36.27 -212.84,100.47 -7.47,-10.88 -11.86,-22.74 -10.74,-37.01z"/>
   </g>
   <g>
    <path class="fil5" d="M14259.42 6883.28c1.94,-25.41 -93.31,-147.79 -116.83,-160.05 -23.52,-12.25 -93.16,-18.05 -169.99,-66.38 -76.83,-48.34 -228.99,-110.92 -247.59,-93.14 -18.6,17.78 -31.83,100.36 -26.86,114.57 4.96,14.2 191.29,95.79 198.81,109.23 7.5,13.43 -136.02,59.1 -128.29,120.58 7.73,61.47 109.17,56.55 148.69,133.49 39.53,76.93 105.68,137.06 145.74,47.46 61.48,-137.51 191.7,-145.42 196.32,-205.76z"/>
    <path class="fil10" d="M13917.36 7041.58c-1.89,-3.69 94.27,67.69 222.15,-159.94 52.58,-93.59 -166.91,-224.8 -166.91,-224.8 76.83,48.34 146.47,54.14 169.99,66.39 23.52,12.26 118.77,134.64 116.83,160.05 -4.62,60.34 -134.84,68.25 -196.32,205.76 -40.06,89.6 -106.21,29.47 -145.74,-47.46z"/>
    <path class="fil7" d="M13768.67 6908.09c-7.73,-61.48 135.79,-107.15 128.29,-120.58 -7.51,-13.44 -193.85,-95.03 -198.81,-109.23 -4.97,-14.21 8.24,-96.79 26.86,-114.57 2.75,-2.65 8.73,-3.33 16.67,-2.74 -10.05,23.23 -38.09,99.58 17.6,120.95 65.91,25.32 214.95,92.33 204.29,124.62 -9.43,28.55 -144.11,64.8 -177.88,133.76 -9,-8.63 -15.33,-18.79 -17.02,-32.21z"/>
   </g>
   <g>
    <path class="fil5" d="M14490.27 6511.58c-2.39,-23.92 -111.06,-121.91 -134.93,-129.4 -23.88,-7.49 -89.52,-1.4 -168.87,-33.61 -79.35,-32.23 -231.01,-65.27 -245.36,-45.67 -14.36,19.58 -13.01,98.48 -6.06,110.85 6.97,12.39 193.51,57.44 202.71,68.68 9.2,11.23 -116.6,77.33 -99.28,133.16 17.33,55.84 110.74,34.53 160.16,99.48 49.41,64.94 120.79,109.89 143.22,20.03 34.41,-137.86 154.09,-166.7 148.41,-223.52z"/>
    <path class="fil10" d="M14198.64 6715.07c-2.37,-3.12 98.73,47.34 179.97,-185.23 33.4,-95.6 -192.14,-181.27 -192.14,-181.27 79.35,32.21 144.99,26.12 168.87,33.61 23.87,7.49 132.54,105.48 134.93,129.4 5.68,56.82 -114,85.66 -148.41,223.52 -22.43,89.86 -93.81,44.91 -143.22,-20.03z"/>
    <path class="fil7" d="M14038.48 6615.59c-17.32,-55.83 108.48,-121.93 99.28,-133.16 -9.18,-11.24 -195.74,-56.3 -202.71,-68.68 -6.95,-12.37 -8.3,-91.27 6.06,-110.85 2.12,-2.92 7.55,-4.55 15.03,-5.31 -5.5,23.25 -18.95,98.79 36.3,109.47 65.4,12.64 214.92,50.3 210.34,82.04 -4.04,28.08 -123.18,83.99 -143.17,153.62 -9.78,-6.54 -17.34,-14.94 -21.13,-27.13z"/>
   </g>
   <g>
    <path class="fil5" d="M14711.58 6192.86c-2.59,-22.59 -106.66,-113.75 -129.34,-120.52 -22.67,-6.76 -84.65,-0.1 -160.11,-29.49 -75.46,-29.38 -219.31,-58.57 -232.61,-39.86 -13.31,18.71 -10.96,93.3 -4.22,104.9 6.75,11.61 183.74,51.67 192.59,62.18 8.84,10.51 -109.2,74.7 -92.06,127.26 17.14,52.55 105.17,31.14 152.78,91.88 47.6,60.74 115.68,102.25 135.67,17.01 30.67,-130.83 143.43,-159.71 137.3,-213.36z"/>
    <path class="fil10" d="M14438.61 6389.21c-2.29,-2.91 93.98,43.42 167.64,-177.57 30.28,-90.85 -184.12,-168.79 -184.12,-168.79 75.46,29.39 137.44,22.73 160.11,29.49 22.68,6.77 126.75,97.93 129.34,120.52 6.13,53.65 -106.63,82.53 -137.3,213.36 -19.99,85.24 -88.07,43.73 -135.67,-17.01z"/>
    <path class="fil7" d="M14285.83 6297.33c-17.14,-52.56 100.9,-116.75 92.06,-127.26 -8.85,-10.51 -185.84,-50.57 -192.59,-62.18 -6.74,-11.6 -9.09,-86.19 4.22,-104.9 1.97,-2.78 7.08,-4.38 14.14,-5.21 -4.88,22.05 -16.58,93.66 35.82,103.01 62,11.05 203.87,44.64 199.98,74.73 -3.44,26.59 -115.34,81.06 -133.29,147.17 -9.34,-6.06 -16.59,-13.88 -20.34,-25.36z"/>
   </g>
   <g>
    <path class="fil5" d="M14939.7 5926.94c0.03,-21.11 -86.22,-116.3 -106.4,-124.96 -20.2,-8.66 -78.07,-9.14 -144.52,-44.31 -66.46,-35.16 -196,-77.45 -210.27,-61.61 -14.27,15.84 -20.08,84.88 -15.1,96.3 4.99,11.43 163.95,67.29 170.97,77.92 7.04,10.63 -108.68,57.23 -98.49,107.53 10.19,50.31 93.67,39.95 131.08,101.06 37.41,61.11 95.77,106.66 123.32,30.18 42.26,-117.39 149.34,-131.98 149.41,-182.11z"/>
    <path class="fil10" d="M14666.97 6078.87c-1.8,-2.93 82.05,50.09 173.59,-145.85 37.63,-80.55 -151.78,-175.35 -151.78,-175.35 66.45,35.17 124.32,35.65 144.52,44.31 20.18,8.66 106.43,103.85 106.4,124.96 -0.07,50.13 -107.15,64.72 -149.41,182.11 -27.55,76.48 -85.91,30.93 -123.32,-30.18z"/>
    <path class="fil7" d="M14535.89 5977.81c-10.19,-50.3 105.53,-96.9 98.49,-107.53 -7.02,-10.63 -165.99,-66.49 -170.97,-77.92 -4.98,-11.42 0.83,-80.46 15.1,-96.3 2.1,-2.34 7,-3.29 13.6,-3.29 -6.86,19.82 -25.29,84.61 22.02,98.82 56,16.82 183.26,62.96 176.46,90.29 -6.02,24.15 -115.03,62.44 -138.64,121.49 -7.98,-6.58 -13.83,-14.57 -16.06,-25.56z"/>
   </g>
   <path class="fil10" d="M16097.99 4754.24c0,0 -611.91,602.92 93.13,1147.98 705.03,545.05 -892.24,-342.25 -892.24,-342.25l259.17 -618.69 539.94 -187.04z"/>
   <path class="fil10" d="M16909.45 5416.58c0,0 -129.82,566.11 313.31,652.34 443.13,86.25 -605.67,24.75 -605.67,24.75l57.5 -750.26 234.86 73.17z"/>
   <path class="fil10" d="M18072.88 6042.9c0,0 -74.79,76.55 53.74,312.78 128.55,236.25 43.25,315.29 129.44,433.41 86.19,118.13 -638.83,-163.26 -638.83,-163.26l228.55 -697.21 227.1 114.28z"/>
   <path class="fil5" d="M15102.94 6291.36c0,0 230.44,-124.68 602.72,331.62 372.28,456.31 793.58,706.17 943.98,753.81 0,0 137.55,-225.74 169.2,-219.67 37.85,7.27 111,334.47 111,334.47 0,0 13.42,46.71 56.56,13.76 67.56,-51.61 208.88,-261.34 234.36,-256.46 29.88,5.75 49.05,274.02 109.79,338.24 14.2,15.02 30.74,23.55 50.31,-2.08 38.85,-50.89 136.87,-301.1 161.84,-299.12 28.9,2.29 52.16,255.42 100.29,324.19 17.82,25.45 35.33,-5.57 44.6,-20.91 35.37,-58.66 103.6,-224.01 126.82,-214.52 14.25,5.81 56.23,210.71 68.28,227.68 11.34,15.93 52.71,27.98 239.11,-12.17 0,0 14.15,-6.66 15.78,0.51 1.3,5.73 -8.77,26.33 -13.73,34.34 -61.8,99.95 -274,558.66 -860.79,451.08 -664.33,-121.78 -1539.33,-139.56 -1738.33,-397.38 -198.99,-257.81 -286.74,-595.8 -495.62,-910.02 -246.61,-370.99 73.83,-477.37 73.83,-477.37z"/>
   <path class="fil5" d="M18488 6277.32c-330.92,-695.52 -1121.72,-736.26 -1221.22,-977.6 -99.5,-241.36 -179.46,-728.94 -1271.95,-862.35 -1092.49,-133.39 -1249.27,1225.45 -1187.16,1480.44 62.21,255.01 791.22,436.68 1041.83,325.09 236.03,-105.14 617.52,185.64 750.13,391.46 15.31,23.81 16.84,52.6 8.56,79.67 0,0 -71.23,373.16 -52.33,411.86 46.51,95.39 294.79,-305.99 332.22,-307.61 31.82,-1.38 84.64,367.94 84.64,367.94 7.94,41 44.7,32.16 63.31,7.57 61.69,-81.38 157.29,-288.04 188.36,-286.79 17.38,0.73 79.58,291.37 79.58,291.37 4.49,29.21 36.15,26.13 49.29,12.5 88.06,-91.41 164.99,-343.88 187.05,-345.95 19.38,-1.79 120.32,327.35 120.32,327.35 6.83,29.23 22.25,31.98 34.93,13.56 64.32,-93.56 111.68,-280.52 131.16,-280.41 23.4,0.11 51.69,329.15 75.96,339.85 36.23,15.95 147.88,-250.12 172.87,-243.57 11.97,3.13 28,300.8 58.11,304.12 15.58,1.71 114.73,-72.42 209.33,-293.38 0,0 475.92,-59.61 145.01,-755.12zm-2444.48 -614.11l0 0c-164.77,3.84 -318.11,-167.5 -303.21,-452.83 14.9,-285.31 345.76,-345.92 345.76,-345.92 0,0 485.95,-106.21 466.93,200.51 -19,306.72 -344.69,594.41 -509.48,598.24zm797.28 234.96l0 0c-56.62,-97.48 9.59,-487.91 9.59,-487.91 284.45,-3.01 516.08,498.14 512.98,537.44 -3.15,39.31 -465.91,47.97 -522.57,-49.53zm1258.94 665.35l0 0c-14.8,-133.57 -108.28,-280.46 -108.28,-280.46 -48.66,-58.73 -89.84,-225.29 50.83,-197.48 253.6,50.13 378.83,397.77 335.38,531.32 -43.35,133.54 -256.74,136.88 -277.93,-53.38z"/>
   <path class="fil12" d="M18060.23 7731.1c29.77,-45.91 50.24,-84.41 63.62,-106.05 4.96,-8.01 15.03,-28.62 13.73,-34.34 -1.63,-7.17 -15.78,-0.51 -15.78,-0.51 -186.4,40.15 -227.77,28.1 -239.11,12.17 -12.05,-16.97 -54.03,-221.87 -68.28,-227.68 -23.22,-9.49 -91.45,155.86 -126.82,214.52 -9.27,15.34 -26.78,46.36 -44.6,20.91 -48.13,-68.77 -71.39,-321.9 -100.29,-324.19 -24.97,-1.98 -122.99,248.23 -161.84,299.12 -19.57,25.63 -36.11,17.1 -50.31,2.08 -60.74,-64.22 -79.91,-332.49 -109.79,-338.24 -25.48,-4.88 -166.8,204.85 -234.36,256.46 -43.14,32.95 -56.57,-13.76 -56.57,-13.76 0,0 -73.14,-327.2 -110.99,-334.47 -31.65,-6.07 -169.18,219.67 -169.18,219.67 -150.42,-47.64 -571.72,-297.5 -944,-753.81 -372.28,-456.3 -602.71,-331.62 -602.71,-331.62 0,0 -200.73,66.87 -161.87,278.9 84.24,-104.89 265.54,-247.45 514.02,18.44 349.78,374.25 707.83,710.64 1220.93,957.33 399.12,191.88 1094.73,193.72 1384.2,185.07z"/>
   <path class="fil12" d="M18342.99 7032.44c0,0 157.97,-20.09 228.54,-170.12 -409.97,153.55 -1234.39,-98.03 -1640.09,-241.23 -136.02,-48 -254.84,-132.02 -352.12,-238.51 -315.92,-345.81 -472.64,-239.18 -935.42,-282.77 -817.95,-77.04 -777.39,-495.86 -807.71,-668.47 -45.88,217.4 -48.02,406.38 -28.52,486.46 62.21,255.02 791.22,436.69 1041.83,325.09 236.03,-105.13 617.52,185.65 750.13,391.47 15.31,23.81 16.84,52.6 8.56,79.67 0,0 -71.23,373.16 -52.33,411.86 46.51,95.39 294.79,-305.99 332.22,-307.61 31.82,-1.38 84.64,367.94 84.64,367.94 7.94,41 44.7,32.16 63.31,7.57 61.69,-81.38 157.29,-288.04 188.35,-286.79 17.39,0.73 79.59,291.37 79.59,291.37 4.49,29.21 36.15,26.13 49.29,12.5 88.06,-91.41 164.99,-343.88 187.05,-345.95 19.38,-1.79 120.32,327.35 120.32,327.35 6.83,29.23 22.25,31.98 34.93,13.56 64.32,-93.56 111.68,-280.52 131.16,-280.41 23.4,0.1 51.69,329.15 75.96,339.85 36.23,15.95 147.88,-250.12 172.87,-243.57 11.97,3.13 28,300.8 58.11,304.12 15.58,1.71 114.73,-72.42 209.33,-293.38z"/>
   <path class="fil7" d="M17266.78 5299.72c-99.5,-241.36 -179.46,-728.95 -1271.95,-862.35 -393.85,-48.09 -665.6,98.17 -849.81,316.34 184.87,-110.12 535.06,-223.2 1149.48,-127.03 562.66,88.08 736.93,387.92 786.16,618.27 26.35,123.29 120.28,219.95 243.52,246.53 572.47,123.48 1163.82,785.84 1163.82,785.84 -330.92,-695.52 -1121.72,-736.26 -1221.22,-977.6z"/>
   <path class="fil7" d="M15353.02 4759.42c0,0 -332.47,219.4 -274.15,488.27 58.33,268.89 522.58,-645.21 274.15,-488.27z"/>
   <path class="fil7" d="M15088.75 5463.42c-17.62,38.62 -59.9,57.16 -94.45,41.41 -34.55,-15.75 -48.27,-59.84 -30.66,-98.46 17.62,-38.61 59.89,-57.16 94.45,-41.41 34.54,15.76 48.27,59.84 30.66,98.46z"/>
   <path class="fil7" d="M15461.25 7309.13c0,0 9.67,230.79 160.72,282.17 151.07,51.35 -164.47,-452.54 -160.72,-282.17z"/>
   <path class="fil7" d="M15732.14 7650.86c13.92,20.28 10.5,46.85 -7.65,59.3 -18.15,12.46 -44.16,6.11 -58.09,-14.19 -13.94,-20.3 -10.52,-46.85 7.65,-59.3 18.15,-12.47 44.15,-6.11 58.09,14.19z"/>
   <path class="fil10" d="M8397.44 9377.71c111.61,-216.52 207.43,-152.06 474.71,-369.97 188.28,-153.52 132.12,-531.17 -174.01,-724.6 81.93,266.95 59.47,677.98 -749.01,832.58 -1123.07,214.74 -758.84,400.73 -1603.01,669.12 -52.57,120.94 -39.02,192.73 -39.02,192.73 7.76,229.3 310.33,-227.91 613.31,-142.11 302.99,85.81 525.6,-75.55 767.6,-304.95 241.99,-229.38 597.82,63.72 709.43,-152.8z"/>
   <path class="fil7" d="M8180.49 8167.05c-598.72,38.66 -897.47,559.77 -1232.79,948.71 484.68,-49.32 966.1,-355.9 1317.67,-581.24 196.28,-125.8 161.93,-264.66 91.16,-364.34 -55.09,-5.64 -113.56,-7.16 -176.04,-3.13z"/>
   <path class="fil5" d="M9180.23 9545.57c-237.85,-134.5 -506.44,-283.48 -779.36,-270.25 -187.38,9.08 -434.81,92.63 -458.03,278.15 -49.12,392.36 607.05,420.07 987.65,440.21 380.6,20.15 1387.79,780.78 1578.57,647.37 190.78,-133.41 66.23,-340.3 -403.81,-581.84 -317.63,-163.22 -671.67,-370.39 -925.02,-513.64z"/>
   <path class="fil10" d="M10509.06 10641.05c21.89,-15.31 39.11,-31.69 52.65,-48.87 -441.47,5.54 -1327.07,-770.23 -1897.42,-779.49 -383,-6.23 -650.16,-207.57 -713.94,-294.42 -3.39,11.32 -5.99,23.01 -7.51,35.2 -49.12,392.36 607.05,420.07 987.65,440.21 380.6,20.15 1387.79,780.78 1578.57,647.37z"/>
   <path class="fil7" d="M9841.32 9918.7c-238.47,-130.49 -476.5,-268.76 -661.09,-373.13 -237.85,-134.5 -506.44,-283.48 -779.36,-270.25 -76.56,3.71 -162.98,20.1 -240.19,50.55 60.17,100.81 194.98,236.78 482.29,218.01 431.46,-28.18 1155.21,485.95 1198.35,374.82z"/>
   <path class="fil10" d="M9952.13 10652.89c1.89,1.31 153.61,106.2 -145.04,346.14 -300.52,241.44 -716.89,1233.13 -812.63,1370.67 -67.2,96.52 -70.74,253.33 -163.61,299.91 8.57,20.4 23.08,35.98 47.84,35.43 71.24,-1.57 97.57,-235.41 197.27,-397.16 99.69,-161.75 599.09,-1096.06 854.87,-1289.74 240.42,-182.04 262.99,-348.48 21.3,-365.25z"/>
   <path class="fil5" d="M9570.72 12645.99c0,0 562.97,-1270.22 815.89,-1463.65 252.92,-193.45 132.96,-271.69 100.25,-274.6 -32.71,-2.91 -107.86,25.6 -107.86,25.6 0,0 12.43,-130.8 -58.81,-129.24 -71.23,1.56 -97.56,235.41 -197.25,397.17 -99.71,161.75 -599.11,1096.05 -854.89,1289.73 -255.78,193.7 -265.12,369.8 28.21,366.67 0,0 299.81,314.98 274.46,-211.68z"/>
   <path class="fil10" d="M9246.77 12856.25c-1.91,-1.3 -153.62,-106.19 145.03,-346.14 300.52,-241.43 716.89,-1233.12 812.63,-1370.66 67.2,-96.53 70.75,-253.34 163.62,-299.92 -8.58,-20.39 -23.09,-35.97 -47.86,-35.43 -71.23,1.58 -97.56,235.41 -197.25,397.17 -99.71,161.75 -599.11,1096.05 -854.89,1289.73 -240.41,182.05 -262.98,348.49 -21.28,365.25z"/>
   <path class="fil10" d="M8902.82 13106.45c-123.27,-7.33 -154.68,-107.44 -160.95,-181.34 -22.42,37.93 -37.06,85.52 -36.18,135.99 2.53,147.1 175.82,148.9 249.94,147.45 74.13,-1.43 211.51,130.86 244.99,103.87 12.77,-10.28 31.19,-46.57 46.9,-91.04 -47.96,-69.31 -179.05,-105.06 -344.7,-114.93z"/>
   <path class="fil7" d="M9266.27 13015.28c-40.55,-64.3 -207.93,-45.52 -207.93,-45.52 0,0 -75.13,-25.97 -151.46,-103.15 -36.09,-36.51 -83.53,-27.53 -123.34,7.28 30.2,7.04 110.18,30.73 177.41,95.93 75.51,73.21 246.92,42.63 317,92.39 -0.83,-18.98 -4.36,-35.3 -11.68,-46.93z"/>
   <path class="fil10" d="M9504.78 13890.7c-188.14,-76.37 -116.85,70.14 -193.12,94.02 -68.14,21.34 -501.03,-306.02 -630.02,-405.22 -35.95,32.53 -57.73,75.34 -9.69,121.06 0,0 604.56,446.52 704.89,418.77 100.33,-27.74 81.81,-72.08 56.59,-163.29 -11.13,-40.25 31.1,-51.71 71.35,-65.34z"/>
   <path class="fil7" d="M8807.36 13389.84c-10.34,18.25 -16.72,38.42 -20.98,57.43 126.74,-10.49 353.75,100.36 457.49,193.77 73.87,66.52 140.55,43.87 183.12,13.94 -206.4,-178.52 -559.54,-371.32 -619.63,-265.14z"/>
   <path class="fil10" d="M10063.12 13864.94c-139.41,7.77 -302.01,-51.18 -347.58,-85.03 -20.26,26.44 -15.26,23.19 -15.26,23.19 93.99,110.34 451.68,126.99 398.12,87.43 -14.95,-11.06 -3.32,-3.04 -35.28,-25.59z"/>
   <path class="fil10" d="M10238.23 14127.98c0,0 7.32,-15.88 10.88,-37.18 -88.41,33.71 -390.53,117.84 -742.98,-119.98 -0.45,3.63 -1.14,7.04 -1.22,10.99 -2.6,111.16 483.9,295.41 733.32,146.17z"/>
   <path class="fil10" d="M10361.58 13865.17c-67.28,64.79 -102.81,40.3 -114.84,7.15 -18.34,72.51 61.59,125.99 118.8,33.72 42.67,-68.81 159.05,-96.06 159.05,-96.06 0,0 -75.78,-28.83 -163.01,55.19z"/>
   <path class="fil5" d="M10317.76 14030.36c0,0 60.73,-72.87 144.85,-71.27 84.14,1.59 164.19,85.69 164.19,85.69 0,0 -133.85,2.01 -196.99,67.11 -90.8,93.63 -170.24,-2.5 -112.05,-81.53z"/>
   <path class="fil10" d="M10435.25 14066.21c-89.09,54.82 -122.11,19.54 -127.35,-19.61 -37.4,74.95 37.27,152.57 121.91,65.29 63.14,-65.1 196.99,-67.11 196.99,-67.11 0,0 -76.03,-49.66 -191.55,21.43z"/>
   <path class="fil5" d="M16442.73 9729.44c0,0 71.32,45.71 79.26,120.42 7.95,74.7 -57.65,154.99 -57.65,154.99 0,0 -16.68,-118.36 -81.38,-167.06 -93.05,-70.03 -16.71,-151.11 59.77,-108.35z"/>
   <path class="fil10" d="M16424.04 9837.53c-58.49,-72.84 -30.89,-106.02 3.21,-115.01 -70.56,-24.8 -131.03,49.98 -44.29,115.27 64.7,48.7 81.38,167.06 81.38,167.06 0,0 35.52,-72.88 -40.3,-167.32z"/>
   <path class="fil5" d="M16322.3 9883.18c0,0 67.1,67.04 57.94,150.69 -9.16,83.64 -100.13,155.79 -100.13,155.79 0,0 10.06,-133.48 -49.1,-202.22 -85.07,-98.87 17.83,-169.33 91.29,-104.26z"/>
   <path class="fil10" d="M16276.01 9996.96c-46.58,-93.66 -8.46,-123.36 31,-125.07 -71.27,-43.99 -155.3,23.38 -76,115.55 59.16,68.74 49.1,202.22 49.1,202.22 0,0 56.3,-71.24 -4.1,-192.7z"/>
   <path class="fil10" d="M16027.92 9783.82c71.14,41.83 100.77,19.83 112.45,1.64 -31.94,-11.55 -96.96,-50.19 -192.32,-179.48 -140.36,-190.29 -354.34,-176.27 -437.75,-265.08 -49.98,-53.21 -13.18,-81.93 24.36,-96.5 -38.1,-4.66 -67.81,-0.27 -83.89,15.19 -92.54,88.95 81.35,150.1 81.35,150.1 356.04,103.16 391.58,312.82 495.8,374.13z"/>
   <path class="fil5" d="M15738.01 9262.7c0,0 -158.01,-55.57 -73.91,-136.39 84.09,-80.83 571.49,164.58 633,463.21 0,0 -13.84,68.85 -108.55,13.15 -94.72,-55.71 -127.01,-246.23 -450.54,-339.97z"/>
   <path class="fil10" d="M16188.55 9602.66c64.63,38.02 91.56,18.03 102.18,1.5 -29.02,-10.49 -88.11,-45.6 -174.76,-163.09 -127.55,-172.92 -321.99,-160.18 -397.79,-240.89 -45.41,-48.34 -11.96,-74.45 22.15,-87.69 -34.64,-4.23 -61.62,-0.23 -76.23,13.82 -84.1,80.82 73.91,136.39 73.91,136.39 323.53,93.74 355.82,284.26 450.54,339.96z"/>
   <path class="fil7" d="M14214.08 9326.59c1,-56.42 -5.09,-104.15 -11.8,-130.69 -12.52,-49.46 -287.34,-202.85 -594.39,-381.13 82.01,123.9 198.1,318.7 222.78,461.92 26.65,154.67 288.84,166.07 383.41,49.9z"/>
   <path class="fil5" d="M14814.18 9088.85c126.68,-113.09 270.11,-239.05 437.59,-267.07 115,-19.22 276.3,-1.17 314.91,108.42 81.65,231.79 -313.17,335.29 -541.65,397.79 -228.47,62.51 -739.65,657.46 -873.13,601.66 -133.48,-55.82 -85.17,-197.92 168.37,-406.69 171.34,-141.08 358.97,-313.65 493.91,-434.11z"/>
   <path class="fil10" d="M14151.9 9929.65c-15.31,-6.42 -27.93,-14.09 -38.42,-22.73 268.82,-54.95 704.18,-643.04 1049.31,-724.01 231.76,-54.37 367.4,-211.93 394.67,-273.09 3.56,6.42 6.68,13.18 9.22,20.38 81.65,231.79 -313.17,335.29 -541.65,397.79 -228.47,62.51 -739.65,657.46 -873.13,601.66z"/>
   <path class="fil7" d="M14462 9402.77c127.58,-110.76 253.87,-226.15 352.18,-313.93 126.68,-113.08 270.11,-239.04 437.59,-267.06 46.98,-7.86 101.63,-9.31 152.54,-1.03 -23.22,69.17 -87.13,169.55 -264.09,196.1 -265.74,39.89 -637.34,447.7 -678.22,385.92z"/>
   <g>
    <path class="fil5" d="M6233.24 10121.89c9.96,-21.78 -34.39,-160.66 -51.17,-179.1 -16.78,-18.42 -76.33,-46.13 -128.45,-113.68 -52.1,-67.57 -166.04,-172.13 -188.22,-162.47 -22.19,9.65 -60.63,78.22 -60.86,92.37 -0.22,14.14 137.71,146.55 139.97,160.84 2.28,14.28 -139.16,8.03 -152.28,64.77 -13.12,56.74 77.98,85.3 87.89,165.99 9.93,80.7 48.79,155.2 113.19,89.13 98.82,-101.37 216.29,-66.1 239.93,-117.85z"/>
    <path class="fil10" d="M5880.12 10150.61c-0.47,-3.87 61.21,90.3 247.86,-69.06 76.73,-65.51 -74.36,-252.44 -74.36,-252.44 52.12,67.55 111.67,95.26 128.45,113.68 16.78,18.44 61.13,157.32 51.17,179.1 -23.64,51.75 -141.11,16.48 -239.93,117.85 -64.4,66.07 -103.26,-8.43 -113.19,-89.13z"/>
    <path class="fil7" d="M5792.23 9984.62c13.12,-56.74 154.56,-50.49 152.28,-64.77 -2.26,-14.29 -140.19,-146.7 -139.97,-160.84 0.23,-14.15 38.67,-82.72 60.85,-92.37 3.3,-1.45 8.79,-0.1 15.61,2.99 -16.4,17.23 -65.9,75.49 -23.71,112.42 49.94,43.71 159.7,151.17 139.83,176.19 -17.58,22.13 -148.17,10.43 -200.32,60.32 -5.14,-10.53 -7.43,-21.56 -4.57,-33.94z"/>
   </g>
   <g>
    <path class="fil5" d="M5860.85 10340.79c9.68,-21.19 -33.46,-156.31 -49.78,-174.25 -16.33,-17.94 -74.27,-44.9 -124.98,-110.64 -50.71,-65.72 -161.58,-167.47 -183.16,-158.08 -21.58,9.39 -58.99,76.12 -59.21,89.88 -0.21,13.76 134,142.61 136.19,156.51 2.21,13.9 -135.4,7.8 -148.17,63.02 -12.76,55.22 75.87,83 85.53,161.52 9.65,78.52 47.46,151.01 110.13,86.72 96.16,-98.63 210.45,-64.33 233.45,-114.68z"/>
    <path class="fil10" d="M5517.27 10368.74c-0.46,-3.75 59.55,87.87 241.16,-67.18 74.67,-63.76 -72.34,-245.66 -72.34,-245.66 50.71,65.74 108.64,92.7 124.98,110.64 16.32,17.93 59.46,153.06 49.78,174.25 -23,50.35 -137.29,16.05 -233.45,114.68 -62.67,64.29 -100.48,-8.2 -110.13,-86.73z"/>
    <path class="fil7" d="M5431.74 10207.23c12.77,-55.22 150.38,-49.12 148.17,-63.02 -2.19,-13.9 -136.41,-142.75 -136.19,-156.51 0.22,-13.76 37.63,-80.49 59.21,-89.88 3.2,-1.39 8.55,-0.1 15.18,2.92 -15.96,16.76 -64.12,73.46 -23.07,109.39 48.6,42.52 155.4,147.08 136.06,171.43 -17.1,21.54 -144.17,10.16 -194.91,58.69 -5.01,-10.24 -7.24,-20.97 -4.45,-33.02z"/>
   </g>
   <g>
    <path class="fil5" d="M5447.07 10472.12c9.12,-21.12 -36.21,-153.58 -52.68,-170.96 -16.48,-17.37 -74.2,-42.79 -125.59,-106.62 -51.37,-63.85 -162.84,-162 -183.95,-152.28 -21.11,9.69 -56.67,76.31 -56.61,89.9 0.07,13.58 135.13,137.99 137.59,151.66 2.46,13.68 -133.48,10.47 -144.95,65.21 -11.47,54.75 76.57,80.37 87.69,157.66 11.12,77.29 49.91,148.05 110.44,83.35 92.89,-99.3 206.37,-67.76 228.06,-117.92z"/>
    <path class="fil10" d="M5108.57 10506.69c-0.53,-3.71 60.55,85.49 236.62,-71.22 72.4,-64.43 -76.39,-240.93 -76.39,-240.93 51.39,63.83 109.11,89.25 125.59,106.62 16.47,17.38 61.8,149.84 52.68,170.96 -21.69,50.16 -135.17,18.62 -228.06,117.92 -60.53,64.7 -99.32,-6.06 -110.44,-83.35z"/>
    <path class="fil7" d="M5020.88 10349.03c11.47,-54.74 147.41,-51.53 144.95,-65.21 -2.46,-13.67 -137.52,-138.08 -137.59,-151.66 -0.06,-13.59 35.49,-80.21 56.61,-89.9 3.12,-1.45 8.43,-0.28 15.03,2.55 -15.41,16.88 -61.77,73.81 -20.53,108.43 48.82,40.97 156.34,141.99 137.75,166.42 -16.45,21.58 -142.07,12.94 -191.16,61.88 -5.14,-10.01 -7.56,-20.55 -5.06,-32.51z"/>
   </g>
   <g>
    <path class="fil5" d="M5012.71 10613.31c11.38,-19.27 -16.29,-152.67 -30.08,-171.45 -13.8,-18.77 -66.44,-50.32 -108.28,-118.19 -41.85,-67.88 -137.54,-176.18 -159.1,-169.38 -21.56,6.82 -63.98,66.8 -65.56,79.92 -1.6,13.13 113.68,149.65 114.39,163.15 0.71,13.49 -130.12,-6.12 -147.85,45.34 -17.73,51.46 64.14,86.89 65.49,162.86 1.34,75.96 30.21,148.99 96.5,93.88 101.74,-84.57 207.47,-40.34 234.49,-86.13z"/>
    <path class="fil10" d="M4681.72 10605.56c-0.07,-3.66 48.08,89.88 237.1,-40 77.71,-53.4 -44.47,-241.89 -44.47,-241.89 41.84,67.87 94.48,99.42 108.28,118.19 13.79,18.78 41.46,152.18 30.08,171.45 -27.02,45.79 -132.75,1.56 -234.49,86.13 -66.29,55.11 -95.16,-17.92 -96.5,-93.88z"/>
    <path class="fil7" d="M4616.23 10442.7c17.73,-51.46 148.56,-31.85 147.85,-45.34 -0.71,-13.5 -115.99,-150.02 -114.39,-163.15 1.58,-13.12 44,-73.1 65.56,-79.92 3.2,-1 8.17,0.77 14.21,4.31 -16.93,14.42 -68.61,63.75 -33.01,102.17 42.15,45.5 133.69,156.08 112.77,177.41 -18.49,18.84 -138.71,-4.76 -192.06,36.52 -3.75,-10.31 -4.8,-20.76 -0.93,-32z"/>
   </g>
   <g>
    <path class="fil5" d="M4579.13 10714.54c14.42,-12.97 26.2,-130.43 19.67,-149.53 -6.52,-19.11 -41.84,-58.86 -58.79,-125.84 -16.96,-66.97 -67.93,-181.37 -87.51,-181.34 -19.59,0.02 -70.26,38.59 -74.97,49.03 -4.73,10.43 55.1,153.24 52.17,164.58 -2.91,11.34 -105.96,-38.87 -133.99,-0.93 -28.03,37.93 30.45,88.48 11.83,151.64 -18.63,63.14 -13.75,131 55.37,102.67 106.09,-43.48 181.98,20.56 216.22,-10.28z"/>
    <path class="fil10" d="M4307.54 10622.15c0.89,-3.03 16.38,86.79 206.38,28.52 78.11,-23.96 26.09,-211.51 26.09,-211.51 16.95,66.99 52.27,106.74 58.79,125.85 6.53,19.1 -5.25,136.56 -19.67,149.53 -34.24,30.84 -110.13,-33.2 -216.22,10.28 -69.12,28.33 -74,-39.53 -55.37,-102.67z"/>
    <path class="fil7" d="M4295.71 10470.51c28.03,-37.94 131.08,12.27 133.99,0.93 2.93,-11.34 -56.9,-154.15 -52.17,-164.58 4.71,-10.44 55.38,-49.01 74.97,-49.03 2.9,0 6.55,2.75 10.62,7.25 -17.74,7.51 -73.28,34.86 -53.83,75.89 23.03,48.56 69.96,163.75 47.13,175.93 -20.19,10.78 -113.44,-39.97 -168.25,-19.71 -0.42,-9.48 1.42,-18.4 7.54,-26.68z"/>
   </g>
   <g>
    <path class="fil5" d="M4231.95 10757.23c14.03,-12.64 25.5,-126.91 19.15,-145.5 -6.36,-18.59 -40.72,-57.28 -57.22,-122.45 -16.49,-65.17 -66.08,-176.47 -85.15,-176.45 -19.06,0.03 -68.35,37.55 -72.93,47.71 -4.6,10.14 53.6,149.1 50.76,160.14 -2.83,11.04 -103.11,-37.81 -130.38,-0.91 -27.27,36.91 29.62,86.1 11.51,147.55 -18.12,61.44 -13.37,127.48 53.88,99.91 103.21,-42.31 177.07,19.99 210.38,-10z"/>
    <path class="fil10" d="M3967.69 10667.32c0.86,-2.94 15.94,84.46 200.81,27.76 76.01,-23.31 25.38,-205.8 25.38,-205.8 16.5,65.17 50.86,103.86 57.22,122.45 6.35,18.59 -5.12,132.86 -19.15,145.5 -33.31,29.99 -107.17,-32.31 -210.38,10 -67.25,27.57 -72,-38.47 -53.88,-99.91z"/>
    <path class="fil7" d="M3956.18 10519.77c27.27,-36.9 127.54,11.95 130.38,0.91 2.84,-11.04 -55.36,-150 -50.76,-160.14 4.58,-10.16 53.87,-47.68 72.93,-47.71 2.83,-0.01 6.38,2.67 10.34,7.05 -17.26,7.33 -71.29,33.93 -52.37,73.85 22.4,47.24 68.06,159.33 45.85,171.19 -19.63,10.48 -110.38,-38.9 -163.71,-19.18 -0.41,-9.23 1.38,-17.91 7.34,-25.97z"/>
   </g>
   <g>
    <path class="fil5" d="M3861.19 10724.01c13.58,-12.75 22.57,-125.76 15.93,-143.98 -6.65,-18.2 -41.34,-55.68 -58.95,-119.66 -17.61,-63.98 -68.81,-172.8 -87.62,-172.4 -18.81,0.42 -66.69,38.45 -71.01,48.56 -4.33,10.12 55.93,146.06 53.37,157 -2.59,10.95 -102.54,-35.21 -128.7,1.76 -26.16,36.98 30.99,84.37 14.36,145.38 -16.64,61 -10.6,126.07 55.21,97.49 101,-43.85 175.15,16.14 207.41,-14.15z"/>
    <path class="fil10" d="M3598.57 10640.67c0.8,-2.94 17.45,83.01 198.74,23.31 74.53,-24.55 20.86,-203.61 20.86,-203.61 17.61,63.98 52.3,101.46 58.95,119.66 6.64,18.22 -2.35,131.23 -15.93,143.98 -32.26,30.29 -106.41,-29.7 -207.41,14.15 -65.81,28.58 -71.85,-36.49 -55.21,-97.49z"/>
    <path class="fil7" d="M3584.21 10495.29c26.16,-36.97 126.11,9.19 128.69,-1.76 2.57,-10.94 -57.69,-146.88 -53.36,-157 4.32,-10.11 52.2,-48.14 71.01,-48.56 2.78,-0.06 6.35,2.52 10.35,6.76 -16.89,7.57 -69.68,34.93 -50.19,73.93 23.07,46.17 70.42,155.85 48.74,168.01 -19.17,10.75 -109.72,-36.15 -161.95,-15.61 -0.6,-9.09 1,-17.7 6.71,-25.77z"/>
   </g>
   <g>
    <path class="fil5" d="M3483.02 10723.13c14.67,-10.66 37.08,-118.67 32.87,-137.07 -4.2,-18.39 -33.14,-58.79 -42.36,-122.69 -9.23,-63.91 -101.85,8.96 -105.67,19.23 -3.81,10.26 -94.7,-46.47 -124.45,-13.94 -29.75,32.52 19.67,85.22 -3.8,142.08 -23.46,56.88 -25.55,120.43 41.46,100.84 102.82,-30.06 167.12,36.86 201.95,11.55z"/>
    <path class="fil10" d="M3239.61 10610.74c1.12,-2.72 6.76,82.28 189.03,46.66 74.94,-14.64 44.89,-194.03 44.89,-194.03 9.22,63.9 38.16,104.3 42.36,122.69 4.21,18.4 -18.2,126.41 -32.87,137.07 -34.83,25.31 -99.13,-41.61 -201.95,-11.55 -67.01,19.59 -64.92,-43.96 -41.46,-100.84z"/>
    <path class="fil7" d="M3243.41 10468.66c29.75,-32.53 120.64,24.2 124.45,13.94 3.82,-10.27 42.8,35.76 20.39,44.86 -19.8,8.05 -101.52,-48.22 -154.45,-34.74 0.53,-8.85 3.12,-16.96 9.61,-24.06z"/>
   </g>
   <g>
    <path class="fil5" d="M3106.4 10663.55c0,0 -940.64,-37.16 -1388.7,-921.94 -43.53,-85.95 -25.27,-169.08 36.85,-72.38 157.12,244.6 667.15,616.44 1407.49,747.01 0,0 35.64,130.98 -55.64,247.31z"/>
    <g>
     <path class="fil10" d="M3162.9 10540.49c-5.7,42.52 -36.19,97.17 -56.5,123.06 0,0 -758.82,-38.42 -1208.04,-641.31 -29.72,-43.26 -66.51,-80.43 -87.4,-127.06 184.04,219.21 479.88,384.55 669.5,477.45 291.43,142.77 682.4,167.86 682.44,167.86z"/>
     <path class="fil11" d="M1766.26 9830.28c14.58,21.16 29.52,42.85 44.7,64.9 -6.39,-7.61 -12.74,-15.35 -19.1,-23.14 -8.6,-13.76 -17.25,-27.46 -25.6,-41.76z"/>
    </g>
   </g>
   <path class="fil13 str0" d="M17461.08 6640.28c68.74,23.22 203.27,66 407.29,92.74"/>
   <path class="fil13 str0" d="M17230.32 6549.24c0,0 59.86,34.15 140.95,59.21"/>
   <path class="fil13 str1" d="M10376.06 10305.92c-61,-53.06 -148.82,-112.54 -271.82,-162.76"/>
   <path class="fil13 str1" d="M10497.69 10448.62c0,0 -15.97,-32.52 -57.55,-79.47"/>
  </g>
  <g id="_2509841699968">
   <g>
    <path class="fil14" d="M1859.14 16773.63c0,0 3619.28,2066.39 8293.43,0 0,0 -4186.07,3424.14 -8293.43,0z"/>
   </g>
   <g>
    <path class="fil14" d="M9798.06 16773.63c0,0 3619.27,2066.39 8293.42,0 0,0 -4186.06,3424.14 -8293.42,0z"/>
   </g>
   <g>
    <path class="fil15" d="M11221.15 17496.07c0,0 2639.1,1017.4 5170.14,-5.86 0,0 -2263.07,1296.72 -5170.14,5.86z"/>
   </g>
   <g>
    <path class="fil15" d="M3205.92 17496.07c0,0 2639.09,1017.4 5170.13,-5.86 0,0 -2263.08,1296.72 -5170.13,5.86z"/>
   </g>
   <g>
    <path class="fil16" d="M9525.73 20383.51l0 -3013.49c0,-234.1 189.78,-423.88 423.88,-423.88 234.1,0 423.88,189.78 423.88,423.88l0 3013.49 -847.76 0z"/>
    <path class="fil16" d="M10422.84 16472.91c0,261.36 -211.88,473.23 -473.23,473.23 -261.36,0 -473.23,-211.87 -473.23,-473.23 0,-261.35 211.87,-473.22 473.23,-473.22 261.35,0 473.23,211.87 473.23,473.22z"/>
    <g>
     <path class="fil17" d="M10373.49 20383.51l0 -3013.49c0,-205.24 -145.88,-376.35 -339.59,-415.45 31.07,58.95 48.84,125.98 48.84,197.24l0 3231.7 290.75 0z"/>
    </g>
    <path class="fil17" d="M9949.61 15999.69c-1.7,0 -3.35,0.23 -5.04,0.24 141.42,81.83 236.82,234.39 236.82,409.54 0,259.64 -209.18,470.23 -468.19,472.97 69.62,40.28 150.2,63.7 236.41,63.7 261.35,0 473.23,-211.87 473.23,-473.23 0,-261.35 -211.88,-473.22 -473.23,-473.22z"/>
    <path class="fil18" d="M9690.08 16344.82c-29.77,81.56 -80.41,138.02 -113.11,126.08 -32.71,-11.93 -35.09,-87.74 -5.33,-169.29 29.78,-81.57 80.42,-138.02 113.11,-126.09 32.71,11.94 35.09,87.74 5.33,169.3z"/>
   </g>
   <g>
    <path class="fil16" d="M17426.48 20383.51l0 -3013.49c0,-234.1 189.78,-423.88 423.87,-423.88 234.1,0 423.88,189.78 423.88,423.88l0 3013.49 -847.75 0z"/>
    <path class="fil16" d="M18323.58 16472.91c0,261.36 -211.87,473.23 -473.23,473.23 -261.35,0 -473.22,-211.87 -473.22,-473.23 0,-261.35 211.87,-473.22 473.22,-473.22 261.36,0 473.23,211.87 473.23,473.22z"/>
    <g>
     <path class="fil17" d="M18274.23 20383.51l0 -3013.49c0,-205.24 -145.87,-376.35 -339.58,-415.45 31.06,58.95 48.85,125.98 48.85,197.24l0 3231.7 290.73 0z"/>
    </g>
    <path class="fil17" d="M17850.35 15999.69c-1.69,0 -3.33,0.23 -5.04,0.24 141.42,81.83 236.82,234.39 236.82,409.54 0,259.64 -209.18,470.23 -468.19,472.97 69.63,40.28 150.21,63.7 236.41,63.7 261.36,0 473.23,-211.87 473.23,-473.23 0,-261.35 -211.87,-473.22 -473.23,-473.22z"/>
    <path class="fil18" d="M17590.83 16344.82c-29.78,81.56 -80.42,138.02 -113.11,126.08 -32.71,-11.93 -35.09,-87.74 -5.33,-169.29 29.77,-81.57 80.41,-138.02 113.11,-126.09 32.71,11.94 35.09,87.74 5.33,169.3z"/>
   </g>
   <g>
    <path class="fil16" d="M1743.2 20383.51l0 -3013.49c0,-234.1 189.78,-423.88 423.88,-423.88 234.1,0 423.88,189.78 423.88,423.88l0 3013.49 -847.76 0z"/>
    <path class="fil16" d="M2640.3 16472.91c0,261.36 -211.87,473.23 -473.22,473.23 -261.36,0 -473.23,-211.87 -473.23,-473.23 0,-261.35 211.87,-473.22 473.23,-473.22 261.35,0 473.22,211.87 473.22,473.22z"/>
    <g>
     <path class="fil17" d="M2590.96 20383.51l0 -3013.49c0,-205.24 -145.88,-376.35 -339.6,-415.45 31.07,58.95 48.85,125.98 48.85,197.24l0 3231.7 290.75 0z"/>
    </g>
    <path class="fil17" d="M2167.08 15999.69c-1.71,0 -3.35,0.23 -5.05,0.24 141.43,81.83 236.81,234.39 236.81,409.54 0,259.64 -209.16,470.23 -468.17,472.97 69.61,40.28 150.2,63.7 236.41,63.7 261.35,0 473.22,-211.87 473.22,-473.23 0,-261.35 -211.87,-473.22 -473.22,-473.22z"/>
    <path class="fil18" d="M1907.54 16344.82c-29.76,81.56 -80.4,138.02 -113.1,126.08 -32.71,-11.93 -35.09,-87.74 -5.33,-169.29 29.77,-81.57 80.41,-138.02 113.11,-126.09 32.7,11.94 35.09,87.74 5.32,169.3z"/>
   </g>
  </g>
 </g>
</svg>
