<?xml version="1.0" encoding="UTF-8"?>
<!DOCTYPE svg PUBLIC "-//W3C//DTD SVG 1.1//EN" "http://www.w3.org/Graphics/SVG/1.1/DTD/svg11.dtd">
<!-- Creator: CorelDRAW -->
<svg xmlns="http://www.w3.org/2000/svg" xml:space="preserve" width="203.793mm" height="130.557mm" version="1.1" style="shape-rendering:geometricPrecision; text-rendering:geometricPrecision; image-rendering:optimizeQuality; fill-rule:evenodd; clip-rule:evenodd"
viewBox="0 0 20379.3 13055.68"
 xmlns:xlink="http://www.w3.org/1999/xlink"
 xmlns:xodm="http://www.corel.com/coreldraw/odm/2003">
 <defs>
  <style type="text/css">
   <![CDATA[
    .str0 {stroke:#F9EBD1;stroke-width:296.88;stroke-miterlimit:10}
    .str2 {stroke:#262657;stroke-width:59.38;stroke-linecap:round;stroke-linejoin:round;stroke-miterlimit:10}
    .str4 {stroke:#38368C;stroke-width:59.38;stroke-linecap:round;stroke-linejoin:round;stroke-miterlimit:10}
    .str3 {stroke:#723636;stroke-width:59.38;stroke-linecap:round;stroke-linejoin:round;stroke-miterlimit:10}
    .str1 {stroke:#974B4B;stroke-width:59.38;stroke-linecap:round;stroke-linejoin:round;stroke-miterlimit:10}
    .fil4 {fill:none;fill-rule:nonzero}
    .fil25 {fill:#262657;fill-rule:nonzero}
    .fil22 {fill:#282850;fill-rule:nonzero}
    .fil21 {fill:#343464;fill-rule:nonzero}
    .fil15 {fill:#5B62C8;fill-rule:nonzero}
    .fil26 {fill:#6267DF;fill-rule:nonzero}
    .fil24 {fill:#8A8CFB;fill-rule:nonzero}
    .fil23 {fill:#B65D5D;fill-rule:nonzero}
    .fil8 {fill:#BC9052;fill-rule:nonzero}
    .fil20 {fill:#C16E6E;fill-rule:nonzero}
    .fil18 {fill:#CC1A1A;fill-rule:nonzero}
    .fil9 {fill:#D18E34;fill-rule:nonzero}
    .fil5 {fill:#D1A56D;fill-rule:nonzero}
    .fil6 {fill:#DAAF6B;fill-rule:nonzero}
    .fil2 {fill:#EDC680;fill-rule:nonzero}
    .fil3 {fill:#F4DBA1;fill-rule:nonzero}
    .fil11 {fill:#F4DBA1;fill-rule:nonzero;fill-opacity:0.101961}
    .fil17 {fill:white;fill-rule:nonzero;fill-opacity:0.101961}
    .fil13 {fill:#AA6E26;fill-rule:nonzero;fill-opacity:0.200000}
    .fil12 {fill:#D18E34;fill-rule:nonzero;fill-opacity:0.200000}
    .fil14 {fill:#F4DBA1;fill-rule:nonzero;fill-opacity:0.200000}
    .fil27 {fill:#9EA1FB;fill-rule:nonzero;fill-opacity:0.501961}
    .fil10 {fill:#AA6E26;fill-rule:nonzero;fill-opacity:0.501961}
    .fil0 {fill:#EDC680;fill-rule:nonzero;fill-opacity:0.501961}
    .fil1 {fill:#F4DBA1;fill-rule:nonzero;fill-opacity:0.501961}
    .fil7 {fill:white;fill-rule:nonzero;fill-opacity:0.501961}
    .fil19 {fill:#8A2323;fill-rule:nonzero}
    .fil16 {fill:#D6D8DB;fill-rule:nonzero}
   ]]>
  </style>
 </defs>
 <g id="Layer_x0020_1">
  <metadata id="CorelCorpID_0Corel-Layer"/>
  <g id="_2380563752704">
   <g>
    <g>
     <path class="fil0" d="M18721.99 5661.97l1653.09 -2.45 0 -5652.84 -1661.44 2.46c-26.21,0.04 -47.42,21.31 -47.38,47.52l8.21 5557.93c0.04,26.21 21.32,47.42 47.52,47.38z"/>
     <path class="fil1" d="M19180.65 5058.4l1194.43 -1.77 0 -4447.06 -1201.01 1.79c-20.49,0.03 -37.08,16.66 -37.04,37.16l6.46 4372.83c0.02,20.49 16.66,37.08 37.16,37.05z"/>
    </g>
    <g>
     <path class="fil2" d="M8915.84 5665.7l8395.15 -12.45c37.27,-0.06 67.44,-30.31 67.39,-67.58l-8.13 -5517.86c-0.06,-37.27 -30.31,-67.43 -67.58,-67.38l-8395.16 12.45c-37.27,0.06 -67.44,30.32 -67.38,67.59l8.13 5517.85c0.05,37.27 30.31,67.44 67.58,67.38z"/>
     <path class="fil3" d="M9634.58 5061.74l6962.44 -10.32c30.1,-0.05 54.46,-24.48 54.42,-54.58l-6.39 -4338.04c-0.04,-30.1 -24.48,-54.46 -54.58,-54.42l-6962.43 10.32c-30.1,0.05 -54.47,24.49 -54.42,54.58l6.38 4338.04c0.05,30.1 24.48,54.47 54.58,54.42z"/>
     <line class="fil4 str0" x1="9570.98" y1="5125.58" x2="16657.82" y2= "5115.07" />
     <path class="fil4 str0" d="M16657.82 5115.07c30.79,-0.05 55.72,-25.05 55.68,-55.85"/>
     <line class="fil4 str0" x1="16713.5" y1="5059.22" x2="16706.93" y2= "597.51" />
     <path class="fil4 str0" d="M16706.93 597.51c-0.05,-30.79 -25.05,-55.72 -55.85,-55.68"/>
     <line class="fil4 str0" x1="16651.08" y1="541.83" x2="9564.25" y2= "552.34" />
     <path class="fil4 str0" d="M9564.25 552.34c-30.8,0.05 -55.72,25.05 -55.68,55.85"/>
     <line class="fil4 str0" x1="9508.57" y1="608.19" x2="9515.14" y2= "5069.9" />
     <path class="fil4 str0" d="M9515.14 5069.9c0.04,30.8 25.04,55.72 55.84,55.68"/>
     <g>
      <path class="fil5" d="M14572.86 1925.98c0,330.3 -267.76,598.06 -598.06,598.06 -330.3,0 -598.06,-267.76 -598.06,-598.06 0,-330.29 267.76,-598.06 598.06,-598.06 330.3,0 598.06,267.77 598.06,598.06z"/>
      <path class="fil2" d="M9590.93 3093.02c0,0 1336.95,-455.05 1604.34,-455.05 267.39,0 481.3,-227.53 882.39,-243.77 401.08,-16.26 935.86,308.78 1363.68,536.3 427.83,227.53 748.69,747.58 1283.48,828.84 534.78,81.26 855.65,1040.12 855.65,1040.12l-6000.96 -129.69 -1.23 -831.27 12.65 -745.48z"/>
      <path class="fil6" d="M12077.66 2394.2c-401.09,16.24 -615,243.77 -882.39,243.77 -267.39,0 -1604.34,455.05 -1604.34,455.05l-12.65 745.48 1.23 831.27 3278.89 70.87 -278.64 -302.99 -487.87 -367.2 -308.13 0 -297.26 -280.25 88.53 -353.45c0,0 41.83,68.79 -86.55,-251.32 -128.39,-320.12 589.18,-791.23 589.18,-791.23z"/>
      <path class="fil2" d="M16650.09 4078.33c-71.31,-51.21 -306.26,-216.84 -510.23,-325.62 -243.77,-130.01 -374.17,-398.84 -554.03,-422.54 -293.81,-38.73 -654.1,-265.67 -875.71,-249.42 -221.62,16.26 -919.34,363.17 -1273.92,704.46 -354.58,341.29 -908.61,471.31 -1218.87,552.57 -310.25,81.25 -797.8,390.04 -797.8,390.04l4057.5 325.26 1119.99 -1.66c30.1,-0.05 54.46,-24.48 54.42,-54.58l-1.35 -918.51z"/>
      <path class="fil6" d="M14710.12 3080.75c-221.62,16.26 -919.34,363.17 -1273.92,704.46 -354.58,341.29 -908.61,471.31 -1218.87,552.57 -310.25,81.25 -797.8,390.04 -797.8,390.04l779.21 62.46 4384.71 171.59c0,0 -186.92,-310.69 -199.38,-347.24 -12.46,-36.55 -436.12,-173.62 -498.43,-201.04 -62.3,-27.41 -398.74,-63.97 -398.74,-63.97 0,0 -510.9,45.7 -573.2,18.28 -62.3,-27.41 -283.24,-289.35 -274.13,-338.11 45.52,-243.88 56.09,-349.13 -143.28,-550.17 -83.26,-83.94 96.18,-132.7 113.53,-209.89 24.18,-107.64 100.3,-188.98 100.3,-188.98z"/>
      <path class="fil2" d="M9578.98 4312.25c271.42,54.39 1148.38,229.42 1668.03,324.69 620.51,113.77 2216.12,-97.51 2592.86,32.5 376.74,130.02 1795.06,162.52 1994.51,211.28 162.71,39.77 635.09,122.8 803.61,152.04 -9.97,11.41 -24.62,18.63 -40.97,18.66l-6962.44 10.32c-30.1,0.05 -54.53,-24.32 -54.58,-54.42l-1.02 -695.07z"/>
      <path class="fil6" d="M16651.17 4812.87c-281.74,-65.95 -993.12,-188.09 -1512.64,103.25 -109.99,61.68 -238.88,105.94 -381.06,138.03l1839.55 -2.73c30.1,-0.05 54.46,-24.48 54.42,-54.58l-0.27 -183.97z"/>
      <path class="fil7" d="M14344.58 3654.46c42.52,-14.25 92.69,-16.79 140.07,-10.6 88.03,11.52 271.02,31.31 437.69,23.01 229.86,-11.46 496.99,7.63 739.29,22.9 242.28,15.27 509.42,-26.72 521.84,19.09 12.43,45.81 -857.32,76.35 -1236.28,87.8 -378.97,11.45 -428.67,-57.26 -577.76,-95.43 -74.56,-19.09 -59.02,-35.32 -24.85,-46.77z"/>
      <path class="fil8" d="M10210.37 5058.01c0,0 0,-379.03 0,-512.87 0,0 -184.04,-22.31 -206.34,-178.46 -22.31,-156.14 -55.77,-373.64 55.76,-395.95 111.54,-22.31 105.96,312.3 105.96,312.3 0,0 5.58,39.03 44.62,44.61 0,0 -67.15,-568.89 94.8,-630.17 75.93,-28.73 122.69,-4.62 132.03,228.87 10.28,257.35 1.81,629.95 1.81,629.95 0,0 61.35,-161.73 66.93,-295.57 5.57,-133.84 117.1,-200.76 133.83,44.62 16.74,245.37 -78.07,368.06 -195.18,451.72l5.51 303.47 -239.73 0.36 0 -2.88z"/>
      <path class="fil7" d="M13875.32 1862.05c0,0 -119.32,14.22 -301.82,-7.11 -182.49,-21.34 -322.87,81.78 -459.74,17.77 -136.87,-63.99 -263.21,42.67 -407.1,-3.55 -143.89,-46.22 -298.31,-46.22 -196.53,-113.78 101.77,-67.56 252.68,7.11 361.48,-35.55 108.79,-42.67 207.06,-17.78 336.91,35.55 129.84,53.34 361.47,-64 501.85,-14.22 140.38,49.77 249.18,24.89 263.22,67.56 14.03,42.66 -98.27,53.33 -98.27,53.33z"/>
      <path class="fil7" d="M10844.59 2908.43c-32.63,12.47 -71.59,16.94 -108.2,11.31 -205.8,-31.65 -244.74,23.76 -373.56,33.69 -177.67,13.71 -350.45,-41.14 -538.26,-49.07 -85.52,-3.61 -174.78,2.59 -247.65,6.9l-0.11 -77.56c55.9,-11.93 126.35,-22.45 210.73,-28.88 178.59,-13.6 243.21,55.66 561.25,17.36 291.43,-35.1 359.48,20.02 475.64,48.45 58.08,14.22 46.38,27.79 20.16,37.8z"/>
     </g>
    </g>
    <g>
     <path class="fil0" d="M7329.61 5661.33l-5734.86 -8.51c-30.86,-0.05 -55.84,-25.1 -55.8,-55.95l8.18 -5541.09c0.05,-30.86 25.1,-55.83 55.96,-55.79l5734.86 8.51c30.86,0.04 55.84,25.09 55.79,55.95l-8.18 5541.09c-0.05,30.85 -25.1,55.83 -55.95,55.79z"/>
     <path class="fil1" d="M6691.33 5057.49l-4456.52 -6.61c-24.13,-0.04 -43.66,-19.63 -43.62,-43.76l6.43 -4359.66c0.04,-24.13 19.62,-43.66 43.75,-43.62l4456.52 6.61c24.12,0.03 43.66,19.62 43.62,43.75l-6.44 4359.67c-0.03,24.13 -19.62,43.65 -43.74,43.62z"/>
     <path class="fil0" d="M2194.49 1255.55l0 12.7c0,50.41 35.44,92.41 84.63,106.54 35.75,10.27 68.5,26.1 96.23,50.94 181.75,162.19 51.33,357.51 158.28,485.29 154.23,184.48 486.08,338.53 771.66,386.66 91.03,15.34 123.57,128.7 54.7,189.21 -176.34,154.93 -387.46,267.67 -449.5,515.88 -9,35.99 1.09,74.12 26.62,101.39 262.62,280.58 879.36,564.8 1192.39,612.63 394.4,60.14 924.31,-392.8 1289.13,-77.32 43.46,37.59 46.61,101.67 11.7,147.07 -63.64,82.73 -102.89,175.17 -133.19,266.27 -21.32,64.09 21.08,131.71 88.8,142.34 211.93,33.25 427.04,62.66 649.39,58.97 48.3,-0.81 91.81,30.47 105.95,75.9 12.83,41.24 31.75,76.94 45.91,116.38 15.71,43.71 56.09,74.09 103.24,74.65 99.51,1.19 202.93,16.3 307.9,43.44 69.82,18.04 137.66,-35.79 137.66,-106.76l0 -447.22c0,-46.33 -29.61,-87.54 -73.97,-103.15 -58.68,-20.66 -116.29,-44.4 -172.09,-73.73 -462.76,-243.44 -216.4,-411.92 -528.26,-714.58 -529.59,-514.03 -1766.09,365.24 -2188.88,-202.9 -295.33,-396.74 416.45,-468.07 256.1,-791.89 -78.81,-159.24 -679.94,-216.69 -964.27,-263.32 -55.91,-9.17 -97.85,-57.7 -93.9,-113.3 27.29,-384.03 -294.51,-505.21 -635.06,-598.07 -70.99,-19.36 -141.17,33.54 -141.17,105.98z"/>
    </g>
   </g>
   <g>
    <g>
     <path class="fil9" d="M10323.28 13055.72c528.95,-1375.8 951.22,-3349.74 -575.99,-4064.84 -54.16,-25.36 -114.13,-36.96 -173.92,-37.07l-1911.19 -3.5c-90.23,-0.17 -178.23,27.58 -250.77,81.26 -393.98,291.52 -1534.95,1407.78 -504.58,4024.15l3416.45 0z"/>
     <polygon class="fil9" points="9660.64,8953.97 7641.09,8950.27 7641.85,8539.32 9661.4,8543.03 "/>
     <path class="fil9" d="M9801.59 8543.28l-2299.93 -4.22c-145.82,-0.26 -263.82,-118.7 -263.55,-264.52l0.11 -62.01c0.27,-145.83 118.7,-263.83 264.52,-263.56l2299.93 4.23c145.82,0.26 263.82,118.69 263.55,264.51l-0.11 62.02c-0.26,145.82 -118.7,263.82 -264.52,263.55z"/>
     <path class="fil3" d="M6497.68 11375.98l4274.07 7.84c46.25,-362.41 49.34,-719.5 -11.48,-1049.59l-4178.76 -7.66c-75.13,293.45 -112.09,641.25 -83.83,1049.41z"/>
     <path class="fil10" d="M10323.28 13055.72c528.95,-1375.79 951.23,-3349.75 -575.99,-4064.84 -54.14,-25.36 -114.14,-36.96 -173.91,-37.07l-558.83 -1.02c0,0 1548.27,1276.68 326.98,4102.93l981.75 0z"/>
     <polygon class="fil10" points="9661.39,8543.03 9015.31,8541.84 9014.55,8952.79 9660.64,8953.97 "/>
     <path class="fil11" d="M7131.75 9285.83c-464.6,506.52 -1062.87,1641.66 -224.79,3769.89l3.01 0c553.06,-727.19 1906.86,-2799.97 221.78,-3769.89z"/>
     <path class="fil10" d="M9802.66 7953.19l-766.48 -1.4 -20.86 590.05 786.26 1.44c145.84,0.27 264.27,-117.73 264.53,-263.55l0.11 -62.02c0.28,-145.82 -117.73,-264.25 -263.56,-264.52z"/>
    </g>
    <g>
     <path class="fil12" d="M2400.3 13055.72c379.25,-889.65 806.91,-2376.31 -279.71,-2885.09 -35.29,-16.53 -74.38,-24.09 -113.35,-24.16l-1245.55 -2.29c-58.81,-0.1 -116.15,17.98 -163.43,52.96 -268.3,198.53 -1067.87,984.12 -229.31,2858.58l2031.35 0z"/>
     <polygon class="fil12" points="2064.12,10146.57 747.95,10144.16 748.44,9876.34 2064.61,9878.75 "/>
     <path class="fil12" d="M2155.97 9878.92l-1498.89 -2.75c-95.04,-0.18 -171.94,-77.36 -171.77,-172.4l0.08 -40.41c0.17,-95.04 77.36,-171.94 172.39,-171.76l1498.9 2.75c95.04,0.17 171.94,77.35 171.76,172.39l-0.07 40.41c-0.18,95.04 -77.36,171.94 -172.4,171.77z"/>
     <path class="fil13" d="M2400.31 13055.72c379.24,-889.65 806.9,-2376.31 -279.72,-2885.1 -35.29,-16.52 -74.38,-24.08 -113.34,-24.15l-364.2 -0.67c0,0 1095.13,902.9 103.81,2909.92l653.45 0z"/>
     <polygon class="fil13" points="2064.6,9878.75 1643.55,9877.98 1643.05,10145.8 2064.12,10146.57 "/>
     <path class="fil14" d="M416 10362.84c-302.91,330.25 -693.03,1070.51 -145.84,2458.63 359.63,-472.4 1245.34,-1825.76 145.84,-2458.63z"/>
     <path class="fil13" d="M2156.67 9494.35l-499.52 -0.92 -13.6 384.55 512.42 0.94c95.05,0.17 172.23,-76.73 172.4,-171.77l0.07 -40.41c0.18,-95.04 -76.72,-172.22 -171.77,-172.39z"/>
    </g>
    <g>
     <path class="fil12" d="M20375.08 10147.92c-9.59,-0.96 -19.22,-1.43 -28.85,-1.45l-1245.55 -2.29c-58.81,-0.1 -116.16,17.98 -163.44,52.96 -268.3,198.53 -1067.87,984.12 -229.3,2858.58l1667.14 0 0 -2907.8z"/>
     <polygon class="fil12" points="20375.08,10146.53 19086.93,10144.16 19087.43,9876.34 20375.08,9878.69 "/>
     <path class="fil12" d="M20375.08 9878.7l-1379.01 -2.53c-95.04,-0.18 -171.94,-77.36 -171.76,-172.4l0.06 -40.41c0.18,-95.04 77.36,-171.94 172.4,-171.76l1378.31 2.53 0 384.57z"/>
     <path class="fil13" d="M20375.08 10147.92c-9.58,-0.96 -19.22,-1.43 -28.84,-1.45l-364.2 -0.67c0,0 239.42,197.18 393.04,612.25l0 -610.13zm0 2176.21c-65.41,225.25 -159.53,468.99 -289.23,731.59l289.23 0 0 -731.59z"/>
     <polygon class="fil13" points="20375.08,9878.69 19982.53,9877.98 19982.04,10145.8 20375.08,10146.53 "/>
     <path class="fil14" d="M18754.99 10362.84c-302.92,330.25 -693.03,1070.51 -145.85,2458.63 359.64,-472.4 1245.34,-1825.76 145.85,-2458.63z"/>
     <polygon class="fil13" points="20375.08,9494.13 19996.13,9493.43 19982.54,9877.98 20375.08,9878.7 "/>
    </g>
   </g>
   <g>
    <g>
     <g>
      <g>
       <g>
        <g>
         <polygon class="fil15" points="13595.13,13055.72 13563.23,12337.52 13376.34,9320.66 13176.03,9320.66 13004.77,13055.72 "/>
         <path class="fil16" d="M13595.13 13055.72l-31.9 -718.2c-18.8,-3.2 -38,-7.62 -57.57,-13.38 -278.51,-81.97 -280.01,-424.65 -291.63,-669.9 -18.05,-382.57 0.93,-770.89 0.93,-1153.91 0,-393.66 4.86,-786.41 9.37,-1179.67l-48.3 0 -171.26 3735.06 590.36 0z"/>
        </g>
        <g>
         <path class="fil15" d="M12948.11 9179.68c0,194.05 157.27,351.33 351.33,351.33 194.04,0 351.35,-157.28 351.35,-351.33 0,-194.04 -157.31,-351.37 -351.35,-351.37 -194.06,0 -351.33,157.33 -351.33,351.37z"/>
         <path class="fil17" d="M13083.72 9081.09c0,80.8 65.48,146.31 146.29,146.31 80.8,0 146.31,-65.51 146.31,-146.31 0,-80.8 -65.51,-146.33 -146.31,-146.33 -80.81,0 -146.29,65.53 -146.29,146.33z"/>
        </g>
       </g>
      </g>
      <g>
       <path class="fil18" d="M13095.98 9502.79l0 186.09 12.59 5.72c-3.73,8.04 -8.06,14.79 -12.59,20.45l0 17.16c63.85,-8.17 187.98,-3.04 230.4,11.38 21.15,22.13 62.02,71.19 92.79,108.15 34.7,41.73 64.71,77.74 84.18,97.88 489.86,506.07 1056.1,894.98 1683.04,1155.89 595.42,247.9 1234.44,376.31 1899.39,381.73 14.63,0.13 29.04,0.17 43.68,0.17 4.68,0 9.43,-0.08 14.12,-0.08 4.68,0 9.43,0.08 14.13,0.08 14.61,0 29.03,-0.04 43.66,-0.17 664.95,-5.42 1303.99,-133.83 1899.38,-381.73 459.43,-191.2 886.27,-451.15 1274.33,-775.56l0 -303c-880.43,797.27 -1971.41,1221.81 -3175.55,1231.61 -18.62,0.12 -37.31,0.12 -55.95,0.06 -18.65,0.06 -37.35,0.06 -55.98,-0.06 -1318.15,-10.73 -2500.75,-518.35 -3419.92,-1468 -13.54,-13.98 -44.99,-51.78 -72.72,-85.1 -55.46,-66.62 -93.75,-112.12 -120.06,-136.55 -25.38,-23.52 -75.64,-56.05 -218.94,-66.51 -55.41,-4.07 -111.56,-3.78 -159.98,0.39z"/>
       <path class="fil19" d="M13095.98 9628.56l0 103.65c63.85,-8.17 187.98,-3.04 230.4,11.38 21.15,22.13 62.02,71.19 92.79,108.15 34.7,41.73 64.71,77.74 84.18,97.88 489.86,506.07 1056.1,894.98 1683.04,1155.89 595.42,247.9 1234.44,376.31 1899.39,381.73 14.63,0.13 29.04,0.17 43.68,0.17 4.68,0 9.43,-0.08 14.12,-0.08 4.68,0 9.43,0.08 14.13,0.08 14.61,0 29.03,-0.04 43.66,-0.17 664.95,-5.42 1303.99,-133.83 1899.38,-381.73 459.43,-191.2 886.27,-451.15 1274.33,-775.56l0 -177.23c-880.43,797.28 -1971.41,1221.8 -3175.55,1231.62 -18.62,0.11 -37.31,0.11 -55.95,0.07 -18.65,0.04 -37.35,0.04 -55.98,-0.07 -1318.15,-10.74 -2500.75,-518.36 -3419.92,-1468 -13.54,-13.99 -44.99,-51.8 -72.72,-85.11 -55.46,-66.61 -93.75,-112.13 -120.06,-136.54 -25.38,-23.54 -75.64,-56.07 -218.94,-66.53 -55.41,-4.05 -111.56,-3.76 -159.98,0.4z"/>
      </g>
     </g>
     <g>
      <g>
       <g>
        <g>
         <polygon class="fil15" points="12454.49,13055.72 12422.59,12337.52 12235.7,9320.66 12035.38,9320.66 11864.13,13055.72 "/>
         <path class="fil16" d="M12454.49 13055.72l-31.9 -718.2c-18.8,-3.2 -38.01,-7.62 -57.57,-13.38 -278.53,-81.97 -280.01,-424.65 -291.63,-669.9 -18.06,-382.57 0.91,-770.89 0.91,-1153.91 0,-393.66 4.87,-786.41 9.4,-1179.67l-48.32 0 -171.25 3735.06 590.36 0z"/>
        </g>
        <g>
         <path class="fil15" d="M11807.45 9179.68c0,194.05 157.3,351.33 351.33,351.33 194.06,0 351.35,-157.28 351.35,-351.33 0,-194.04 -157.29,-351.37 -351.35,-351.37 -194.03,0 -351.33,157.33 -351.33,351.37z"/>
         <path class="fil17" d="M11943.05 9081.09c0,80.8 65.51,146.31 146.32,146.31 80.81,0 146.3,-65.51 146.3,-146.31 0,-80.8 -65.49,-146.33 -146.3,-146.33 -80.81,0 -146.32,65.53 -146.32,146.33z"/>
        </g>
       </g>
      </g>
      <g>
       <g>
        <g>
         <polygon class="fil15" points="4725.2,13055.72 4693.31,12337.52 4506.41,9320.66 4306.09,9320.66 4134.86,13055.72 "/>
         <path class="fil16" d="M4725.2 13055.72l-31.89 -718.2c-18.81,-3.2 -38.02,-7.62 -57.57,-13.38 -278.53,-81.97 -280.03,-424.65 -291.62,-669.9 -18.08,-382.57 0.92,-770.89 0.92,-1153.91 0,-393.66 4.85,-786.41 9.37,-1179.67l-48.32 0 -171.23 3735.06 590.34 0z"/>
        </g>
        <g>
         <path class="fil15" d="M4078.17 9179.68c0,194.05 157.3,351.33 351.35,351.33 194.03,0 351.33,-157.28 351.33,-351.33 0,-194.04 -157.3,-351.37 -351.33,-351.37 -194.05,0 -351.35,157.33 -351.35,351.37z"/>
         <path class="fil17" d="M4213.78 9081.09c0,80.8 65.5,146.31 146.31,146.31 80.81,0 146.3,-65.51 146.3,-146.31 0,-80.8 -65.49,-146.33 -146.3,-146.33 -80.81,0 -146.31,65.53 -146.31,146.33z"/>
        </g>
       </g>
      </g>
      <g>
       <path class="fil18" d="M4226.07 9502.79l0 186.09 12.57 5.72c-3.72,8.04 -8.06,14.79 -12.57,20.45l0 17.16c63.84,-8.17 187.97,-3.04 230.39,11.38 21.15,22.13 62.03,71.19 92.77,108.15 34.72,41.73 64.72,77.74 84.21,97.88 489.84,506.07 1056.09,894.98 1683,1155.89 595.42,247.9 1234.46,376.31 1899.4,381.73 14.62,0.13 29.04,0.17 43.69,0.17 4.67,0 9.43,-0.08 14.1,-0.08 4.7,0 9.43,0.08 14.14,0.08 14.62,0 29.04,-0.04 43.67,-0.17 664.93,-5.42 1303.99,-133.83 1899.39,-381.73 626.93,-260.91 1193.17,-649.82 1683.01,-1155.89 19.49,-20.14 49.51,-56.15 84.21,-97.88 30.74,-36.96 71.63,-86.02 92.79,-108.15 42.42,-14.42 166.53,-19.55 230.38,-11.38l0 -17.16c-4.51,-5.66 -8.85,-12.41 -12.57,-20.45l12.57 -5.72 0 -186.09c-48.41,-4.17 -104.55,-4.46 -159.97,-0.39 -143.3,10.46 -193.56,42.99 -218.95,66.51 -26.28,24.43 -64.6,69.93 -120.06,136.55 -27.71,33.32 -59.17,71.12 -72.7,85.1 -919.19,949.65 -2101.78,1457.27 -3419.94,1468 -18.62,0.12 -37.33,0.12 -55.97,0.06 -18.62,0.06 -37.33,0.06 -55.95,-0.06 -1318.16,-10.73 -2500.76,-518.35 -3419.92,-1468 -13.55,-13.98 -45.01,-51.78 -72.72,-85.1 -55.46,-66.62 -93.77,-112.12 -120.06,-136.55 -25.38,-23.52 -75.64,-56.05 -218.95,-66.51 -55.41,-4.07 -111.56,-3.78 -159.96,0.39z"/>
       <path class="fil19" d="M4226.07 9628.56l0 103.65c63.84,-8.17 187.97,-3.04 230.39,11.38 21.15,22.13 62.03,71.19 92.77,108.15 34.72,41.73 64.72,77.74 84.21,97.88 489.84,506.07 1056.09,894.98 1683,1155.89 595.42,247.9 1234.46,376.31 1899.4,381.73 14.62,0.13 29.04,0.17 43.69,0.17 4.67,0 9.43,-0.08 14.1,-0.08 4.7,0 9.43,0.08 14.14,0.08 14.62,0 29.04,-0.04 43.67,-0.17 664.93,-5.42 1303.99,-133.83 1899.39,-381.73 626.93,-260.91 1193.17,-649.82 1683.01,-1155.89 19.49,-20.14 49.51,-56.15 84.21,-97.88 30.74,-36.96 71.63,-86.02 92.79,-108.15 42.42,-14.42 166.53,-19.55 230.38,-11.38l0 -103.65c-48.41,-4.16 -104.55,-4.45 -159.97,-0.4 -143.3,10.46 -193.56,42.99 -218.95,66.53 -26.28,24.41 -64.6,69.93 -120.06,136.54 -27.71,33.31 -59.17,71.12 -72.7,85.11 -919.19,949.64 -2101.78,1457.26 -3419.94,1468 -18.62,0.11 -37.33,0.11 -55.97,0.07 -18.62,0.04 -37.33,0.04 -55.95,-0.07 -1318.16,-10.74 -2500.76,-518.36 -3419.92,-1468 -13.55,-13.99 -45.01,-51.8 -72.72,-85.11 -55.46,-66.61 -93.77,-112.13 -120.06,-136.54 -25.38,-23.54 -75.64,-56.07 -218.95,-66.53 -55.41,-4.05 -111.56,-3.76 -159.96,0.4z"/>
      </g>
     </g>
    </g>
   </g>
   <g>
    <path class="fil20" d="M17790.69 8509.36l-652.42 250.09c0,0 90.62,753.89 97.87,743.02 7.25,-10.88 1097.85,-124.87 1097.85,-124.87l-543.3 -868.24z"/>
    <path class="fil21" d="M17590.57 10536.1c0,0 -63.89,-797.19 -418.98,-1504.55l-2274.49 -93.6c-101.8,316.52 -193.82,606.8 -276.99,872.42 -252.02,803.8 -423.39,1381.51 -543.55,1772.35 -116.34,378.4 -399.62,1104.65 -545.63,1473l1985.55 0 522.66 -1579.89 -131.51 1579.89 1572.9 0c19.86,-226.08 70.69,-819.76 111.62,-1428.11 38.92,-578.49 12.32,-779.73 -1.58,-1091.51z"/>
    <path class="fil22" d="M17171.58 9031.55l-2274.48 -93.61c-36.62,113.9 -71.95,224.27 -106.1,331.45 162.23,30.74 581.88,139.7 994.97,490.28 390.11,331.08 1422.67,417.04 1657.94,-2.33 -62.46,-228.48 -150.17,-482.45 -272.33,-725.79z"/>
    <path class="fil20" d="M18333.99 9377.6c0,0 480.06,-60.25 366.11,-777.56 -9.98,-62.84 -77.55,-519.16 -98.55,-568.61 -218.78,-515.09 -957.47,84.3 -957.47,84.3l117.85 428.45 572.06 833.42z"/>
    <path class="fil20" d="M12965.5 6398.58c0,0 1277.34,-641.08 1361.2,-571.7 83.86,69.37 323.9,1216.58 323.9,1216.58 0,0 -2047.65,808.11 -2238.8,507.54 -191.15,-300.58 553.7,-1152.42 553.7,-1152.42z"/>
    <g>
     <path class="fil20" d="M12082.45 4090.99c-129.02,-354.76 -224.15,-594.32 -272.87,-767.57 -68.03,-241.93 -238.95,-283.58 -156.22,96.49 36.65,168.41 83.35,373.5 83.35,373.5 0,0 -247.29,129.29 -286.46,288.8 -39.18,159.51 33.64,407.96 248.42,753.33 0,0 122.56,623.7 173.48,847.84 50.93,224.15 245.56,1230.01 292.37,1655.29 189.05,585.05 1448.78,207.61 800.98,-940.09 0,0 -227.11,-653.47 -336.19,-877.77 -109.09,-224.3 -361.63,-889.15 -361.63,-889.15 0,0 59.71,-482.35 59.26,-550.28 -0.44,-67.94 -121.15,-491.64 -191.68,-472.16 -70.54,19.48 -105.56,148.53 -15.86,401.22l-36.95 80.55z"/>
     <path class="fil4 str1" d="M12326.94 4081.38c-0.44,-67.94 -121.15,-491.64 -191.68,-472.16 -70.54,19.48 -105.56,148.53 -15.86,401.22"/>
     <line class="fil4 str1" x1="12119.4" y1="4010.44" x2="12082.45" y2= "4090.99" />
     <path class="fil4 str1" d="M12082.45 4090.99c-129.02,-354.76 -224.15,-594.32 -272.87,-767.57 -68.03,-241.93 -238.95,-283.58 -156.22,96.49 36.65,168.41 83.35,373.5 83.35,373.5 0,0 -177.27,92.69 -255.41,217.92"/>
     <g>
      <line class="fil4 str1" x1="11736.71" y1="3793.41" x2="11778.1" y2= "3962.49" />
      <line class="fil4 str1" x1="11595.78" y1="3888.49" x2="11633.77" y2= "4053.94" />
      <line class="fil4 str1" x1="11484.88" y1="4004.43" x2="11522.87" y2= "4169.86" />
     </g>
    </g>
    <path class="fil20" d="M15940.34 5350.1c110.7,492.93 879.12,334.94 922.11,82.39 43.34,-252.92 -26.52,-314.89 -85.63,-777.37 -48.36,-377.94 -691.75,-385.83 -806.03,-131.84 -17.19,37.98 -22.56,81.69 -12.18,130.76 30.09,145.44 18.63,276.56 2.15,390.84 -16.48,121.44 -38.33,224.26 -20.42,305.22z"/>
    <path class="fil23" d="M15958.61 4654.04c30.09,145.44 18.63,276.56 2.15,390.84 328.15,-94.93 385.11,-463.2 385.11,-463.2l-375.08 -58.4c-17.19,37.98 -22.56,81.69 -12.18,130.76z"/>
    <path class="fil24" d="M14988.41 7618.01c-29.25,501.64 -147.27,1158.68 -198.19,1274.41 -50.9,116.05 -9.16,194.78 64.83,208.7 74.31,13.91 2253.29,78.73 2350.68,64.82 97.4,-13.92 129.65,-87.91 129.65,-171.38 0,-83.48 171.7,-667.52 255.18,-904.04 0,0 -2.34,69.33 98.15,347.78 0,0 200.44,-95.22 500.85,-103.9 372.78,-10.76 547.54,19.36 557.36,-48.14 41.05,-282.01 -56.91,-380.72 -164.42,-891.09 -43.01,-204.58 -104.98,-460.39 -183.72,-715.89 -159.04,-515.09 -387.35,-1029.57 -669.41,-1121.59 -628.3,-204.89 -1085.54,-124.89 -1418.5,-156.19 -103.72,-9.8 -204.27,-21.82 -300.4,-33.83 -1.26,-0.33 -2.52,-0.33 -3.79,-0.64 -528.07,-65.78 -932.82,-128.06 -1133.29,211.53 -28.46,48.39 -53.12,104.99 -73.04,171.08 -123.96,409.17 -72.41,679.21 -45.54,1057.39 0.95,14.86 361.56,-199.07 362.52,-183.57 0,0 -95.93,428.76 -128.92,994.55z"/>
    <path class="fil24" d="M13707.56 7465.44c-0.68,22.06 19.35,39.25 40.98,34.82 278.34,-57.01 631.96,-191.92 832.53,-264.5 257.55,-93.23 461.43,-196.71 613.76,-288.21 70.98,-42.68 133.91,-87.39 189.22,-133.98 758.66,-631.9 136.27,-1551 -311.7,-1423.64 -1.28,0.27 -2.41,0.83 -3.69,1.11 -357.05,106.58 -1028.9,463.12 -1793.6,782.61 -127.98,53.44 158.04,232.41 287.01,560.12 140.62,357.33 148.64,630.06 145.49,731.67z"/>
    <path class="fil20" d="M16677.11 4698.54c-658,155.65 -990.54,88.44 -1075.45,-258.25 -84.9,-346.69 268.87,-873.8 268.87,-873.8l-28.31 -191.04c0,0 194.57,-91.98 229.95,-120.28 35.38,-28.3 152.12,-321.93 258.25,-350.22 106.13,-28.31 856.11,357.29 633.24,994.07 -222.87,636.79 -286.55,799.52 -286.55,799.52z"/>
    <path class="fil23" d="M16080.07 3758.77c29.96,95.55 136.36,147.26 237.65,115.5 101.3,-31.76 159.14,-134.95 129.19,-230.49 -29.95,-95.55 -136.36,-147.27 -237.65,-115.51 -101.3,31.76 -159.14,134.96 -129.19,230.5z"/>
    <line class="fil4 str1" x1="15870.53" y1="3566.49" x2="15842.22" y2= "3375.45" />
    <path class="fil4 str1" d="M15842.22 3375.45c0,0 194.57,-91.98 229.95,-120.28"/>
    <path class="fil21" d="M17613.17 4460.39c42.26,-91.95 241.95,-694.42 -69.35,-881.06 0,0 -15.78,-359.67 -239.31,-477.53 -223.18,-118.21 -238.58,-164.43 -243.25,-231.06 -17.2,-245.75 -248.96,-477.54 -512.28,-296.62 -8.23,5.37 -16.83,11.46 -25.06,17.91 -281.59,-27.95 -356.1,236.79 -308.45,364.69 -101.03,330.29 139.34,578.19 70.94,693.9 -77.75,131.83 -18.28,289.45 -18.28,289.45 116.06,-184.49 349.39,-130.38 390.26,51.26 20.94,93 -11.33,207.48 -312.52,271.18 -11.63,2.45 -20.55,12.57 -31.2,19.17 -276.92,171.95 -78.44,424.67 -17.88,591.24 1.51,4.2 2.81,8.63 4.27,12.9 482.14,369.75 1071,57.51 1312.11,-425.43z"/>
    <path class="fil25" d="M16157.39 3441.45c0,27.9 -22.61,50.51 -50.51,50.51 -27.9,0 -50.52,-22.61 -50.52,-50.51 0,-27.9 22.62,-50.51 50.52,-50.51 27.9,0 50.51,22.61 50.51,50.51z"/>
    <g>
     <path class="fil4 str2" d="M17029.59 3122.04c-168.08,-38.48 -184.27,-157.96 -234.9,-257.18 -50.62,-99.23 -128.38,-252.06 -270.75,-272.85"/>
     <path class="fil4 str2" d="M16215.48 2956.89c51.07,-114.89 213.19,-249.8 363.48,-114.89"/>
    </g>
    <g>
     <path class="fil4 str3" d="M16507.62 4068.79c3.14,-142.56 -118.42,-147.44 -192.95,-25.79"/>
    </g>
    <path class="fil4 str3" d="M15950.56 3896.06c-54.21,102.6 -172.02,29.67 -172.02,29.67"/>
    <path class="fil25" d="M16281.89 3393.68c-52.25,34.25 -177.87,-207.66 -79.31,-273.92 98.56,-66.27 149.93,227.65 79.31,273.92z"/>
    <path class="fil26" d="M15507.75 6780.91c-23.31,-52.27 -204.75,191.18 -464.93,280.32 -21.39,157.03 -42.19,347.48 -54.41,556.77 -13.99,239.79 -48.25,514.99 -85.78,749.7l0 0c0,0 631,-1528.76 605.12,-1586.79z"/>
    <path class="fil26" d="M17688.7 8438.3c0,0 150.33,-71.24 385.51,-96.05l-155.12 -1058.38c0,0 -252.04,570.66 -326.3,829.14 5.6,37.79 25.43,130 95.91,325.29z"/>
    <path class="fil4 str4" d="M17976.65 7051.46c-5.38,64.19 -26.88,144.19 -57.55,232.41 -90.12,260.24 -259.29,592.26 -328.54,806.33"/>
    <line class="fil4 str4" x1="17590.56" y1="8090.2" x2="17590.56" y2= "8090.52" />
    <path class="fil4 str4" d="M15295.29 6907.35c-152.32,91.51 -356.21,194.98 -613.76,288.22"/>
    <path class="fil27" d="M18299.46 6385.3c-149.53,-403.29 -342.25,-753.29 -570.09,-827.61 -628.3,-204.89 -1085.54,-124.9 -1418.49,-156.2 -103.72,-9.79 -204.29,-21.81 -300.4,-33.82 -1.28,-0.32 -2.53,-0.32 -3.8,-0.64 -458.61,-57.12 -824.11,-111.45 -1043.66,97.64 267.29,9.05 1009.04,93.11 1434.21,726.47 454.99,677.8 1149.51,104.99 1902.23,194.16z"/>
    <line class="fil4 str1" x1="12965.5" y1="6398.58" x2="13084.25" y2= "6744.49" />
    <path class="fil4 str1" d="M17761.93 8523.67c0,0 149.06,-28.89 287.77,14.05"/>
   </g>
  </g>
 </g>
</svg>
